M48
;Layer_Color=9474304
;FILE_FORMAT=4:4
METRIC,LZ
;TYPE=PLATED
T1F00S00C0.2000
T2F00S00C0.3000
T3F00S00C0.4500
T4F00S00C0.5000
T5F00S00C0.6000
T6F00S00C0.7500
T7F00S00C0.8000
T8F00S00C0.9000
T9F00S00C1.0000
T10F00S00C1.5000
;TYPE=NON_PLATED
T11F00S00C1.7500
T12F00S00C3.0000
T13F00S00C6.0000
%
T01
X01080582Y004268
X01089582
X01097582
X01106582
Y004368
X01097582
X01089582
X01080582
X00081581
X00072581
X00064581
X00055581
Y004268
X00064581
X00072581
X00081581
X00938418Y016282
X00947418
X00955418
X00964418
Y016382
X00955418
X00947418
X00938418
X01963419
X01972419
X01980419
X01989419
Y016282
X01980419
X01972419
X01963419
T02
X00091441Y0000508
X00127901Y000217
Y000817
X00112901Y001117
X00082901
X00097901Y001417
X00127901
X00067901
X00037901
X00007901
X00022901Y001117
X001579Y000817
X00187901
X00217901
X00247901
X00277901Y0007128
X00271621Y000517
X00292901
X00307901Y0007128
Y000217
X00247901
X00217901
X00187901
X001579
X00172901Y000517
X00202901
X00232901
X00142901
X00187901Y001417
X00217901
X00307901
X00367901
Y000817
X00390091
X00427901
X00438889Y00101599
X00504191Y0010033
X00537211Y001016
X00352901Y0003838
X00704851Y0002667
X00699771Y0011684
X00685801Y0011049
X00670561Y0010668
X00631191Y0014097
X00715011Y0013843
X00872491Y0010033
X01047902Y001117
X01062902Y001417
X01092902
X01122902
X01152902
X01137902Y001117
X01107902
X01152902Y000817
X01182902
X01212902
X01242902
X01272901
X01302901Y0007128
X01296622Y000517
X01317901
X01332901Y0007128
Y000217
X01272901
X01242902
X01212902
X01182902
X01152902
X01167902Y000517
X01197902
X01227902
X01257901
X01242902Y001417
X01212902
X01332901
X01032902
X01116442Y0000508
X01377901Y0003838
X01392901Y000817
X01415092
X01452901
X0146389Y00101599
X01529192Y0010033
X01562212Y001016
X01656192Y0014097
X01695562Y0010668
X01710802Y0011049
X01724772Y0011684
X01729852Y0002667
X01392901Y001417
X01740012Y0013843
X01897492Y0010033
X01793352Y0018923
X01741282Y0017653
X01751442Y0022098
Y0023495
X01835262Y0033655
X01853042
X01817482Y0043307
X01728582Y0044831
X01676512
Y0050165
Y0037338
Y0033401
X01685402Y00330517
X01694292Y00329724
X01672702Y0030099
X01679272Y0029083
X01660002Y0027813
X01626982Y0028448
X01579992Y0026035
X01560942Y0027051
X01522207Y0023534
X01467901Y002317
X01437901
X01422901Y002617
X01437901Y002917
X01467901
Y003517
X01437901
X01407901
X01377901
X01347901
X01351392Y0032766
X01377901Y002917
X01407901
X01422901Y003217
X01377901Y002317
Y001717
X01407901
X01437901
X01467901
X01549512Y0016764
X01613012Y0015748
X01624442Y0016891
X01600312Y0021463
X01679052
X01682862Y0020828
X01673972Y0021971
X01670162Y0022606
X01695562Y0015113
X01347901Y001717
X01397112Y004699
X01479662Y0048006
X01488552Y0049149
X01309482Y0046736
X01317901Y003517
X01287901
X01302901Y003217
X01242902
X01227902Y002917
X01242902Y002617
X01254872Y0026924
X01257901Y002317
X01287901
X01332901Y002017
X01227902Y001717
X01167902
X01137902
X01107902
X01077902
X01047902
X01062902Y002017
X01092902
X01077902Y002317
X01047902
X01062902Y002617
X01032902
X01030082Y0028702
X01047902Y002917
X01062902Y003217
X01092902
X01122902
X01137902Y002917
X01107902
X01112632Y0038735
X01099932
X01182902Y003217
Y002617
X01197902Y002317
X01182902Y002017
X01032902
X00768351Y0018923
X00716281Y0017653
X00726441Y0022098
Y0023495
X00645161Y0022606
X00648971Y0021971
X00654051Y0021463
X00657861Y0020828
X00670561Y0015113
X00588011Y0015748
X00599441Y0016891
X00575311Y0021463
X00554991Y0026035
X00601981Y0028448
X00635001Y0027813
X00654271Y0029083
X00647701Y0030099
X00651511Y0033401
X00660401Y00330517
X00669291Y00329724
X00651511Y0037338
Y0044831
X00703581
X00792481Y0043307
X00810261Y0033655
X00828041
X00651511Y0050165
X00463551Y0049149
X00454661Y0048006
X00372111Y004699
X00284481Y0046736
X00292901Y003517
X00322901
X00326391Y0032766
X00352901Y003517
X00382901
X00412901
X00442901
Y002917
X00412901
X00382901
X00352901
Y002317
X00412901
X00442901
X00497206Y0023534
X00535941Y0027051
X00524511Y0016764
X00442901Y001717
X00412901
X00382901
X00352901
X00322901
X00307901Y002017
X00262901Y002317
X00232901
X00229871Y0026924
X00217901Y002617
X00202901Y002917
X00217901Y003217
X00277901
X00262901Y003517
X001579Y003217
Y002617
X00172901Y002317
X001579Y002017
X00142901Y001717
X00202901
X00397901Y002617
Y003217
X00097901
X00067901
X00037901
X00022901Y002917
X00005081Y0028702
X00007901Y002617
X00037901
X00052901Y002317
X00022901
X00037901Y002017
X00067901
X00082901Y001717
X00112901
X00052901
X00022901
X00007901Y002017
X00082901Y002917
X00112901
X00087631Y0038735
X00074931
X00237701Y0071882
X00251311Y0076185
X00328571Y0076926
X00365761Y00726041
X00405021Y0071871
X00494031Y00733263
X00533291Y0072506
X00610871Y0073279
X00622301Y00740484
X00725171Y00747706
Y0070866
X00925831Y0071882
Y0073152
Y0074422
Y0075692
Y0076962
Y0078232
X00895351Y0076962
X00876301Y0079375
X00891541Y0059817
X00911861Y0061722
X00554991Y0088519
X00943611Y0057277
X00971551Y0055753
X00996951
X01262702Y0071882
X01276312Y0076185
X01353572Y0076926
X01390762Y00726041
X01430022Y0071871
X01519032Y00733263
X01558292Y0072506
X01635872Y0073279
X01647302Y00740484
X01579992Y0088519
X01750172Y00747706
Y0070866
X01950832Y0071882
Y0073152
Y0074422
Y0075692
Y0076962
Y0078232
X01920352Y0076962
X01901302Y0079375
X01916542Y0059817
X01936862Y0061722
X01968612Y0057277
X01996552Y0055753
X02021952
X01793689Y0130315
X01716429Y0129574
X01550969Y01331737
X01434129Y0133221
X01422699Y01324516
X01490009Y0117981
X01578909Y010998
X01491092Y009652
X01319829Y01317294
X01149649Y0129538
X01119169
Y0130808
Y0132078
Y0133348
Y0128268
X01168699Y0127125
X00768688Y0130315
X00691428Y0129574
X00553908Y010998
X00465008Y0117981
X00409128Y0133221
X00397698Y01324516
X00294828Y01317294
X00143698Y0127125
X00525968Y01331737
X00466091Y009652
X00124648Y0129538
X00094168
Y0130808
Y0132078
Y0133348
Y0128268
Y0134618
X00108138Y0144778
X00128458Y0146683
X00076388Y0149223
X00048448Y0150747
X00023048
X00227518Y0163193
X00316418Y0161669
X00368488
Y0156335
Y0169162
X00209738Y0172845
X00191958
X00294828Y0135634
X00486708Y0133994
X00614978Y0134629
X00654238Y01338959
X00782298Y0134618
X00735518Y0159764
X00647888Y015951
X00565338Y0158494
X00556448Y0157351
X00577099Y017133
X00607099
X00637099
X00667099
X00697099
X00727099
X00757099
X00932368Y0167765
X00945068
X01048049Y0150747
X01073449
X01101389Y0149223
X01133139Y0144778
X01153459Y0146683
X01119169Y0134618
X01319829Y0135634
X01252519Y0163193
X01234739Y0172845
X01216959
X01393489Y0169162
Y0161669
X01341419
X01393489Y0156335
X01581449Y0157351
X01590339Y0158494
X01672889Y015951
X01662099Y017133
X01692099
X01722099
X01632099
X01602099
X01639979Y0134629
X01679239Y01338959
X01511709Y0133994
X01807299Y0134618
X01760519Y0159764
X01752099Y017133
X01782099
X01957369Y0167765
X01970069
X01977099Y017433
X01947099
X01932099Y017733
X01962099
X02022099
X02039919Y0177798
X02037099Y018033
X02007099
X01992099Y018333
X02022099
X02007099Y018633
X01977099
X01962099Y018933
X01932099
X01902099
X01887099Y018633
X01872099Y018333
X01887099Y018033
X01827099
X01815129Y0179576
X01812099Y018333
X01782099
X01737099Y018633
Y019233
Y0199372
X01767099
X01773379Y020133
X01752099
X01737099Y020433
X01797099
X01827099
X01857099
X01887099
X01917099
X01902099Y020133
X01872099
X01842099
X01812099
X01797099Y019833
X01827099
X01857099
X01887099
X01917099
X01932099Y019533
X01962099
X01947099Y019233
X01917099
X01977099
X02007099
X02037099
X02022099Y018933
X01992099
X02037099Y018633
X02022099Y019533
X01953559Y0205992
X01857099Y019233
X01827099
X01842099Y018933
Y017733
X01827099Y017433
X01767099
X01887099
X02007099
X01718609Y0173734
X01692099Y017733
X01662099
X01632099
X01602099
Y018333
X01632099
X01647099Y018033
Y017433
X01692099Y018333
Y018933
X01662099
X01632099
X01602099
X01606111Y01963401
X01617099Y019833
X01654909
X01677099
X01692099Y0202662
X01677099Y019233
X01722099Y018933
X01520489Y0189736
X01456989Y0190752
X01445559Y0189609
X01413809Y0192403
X01374439Y0191387
Y0195832
X01359199Y0195451
X01345229Y0194816
X01340149Y0203833
X01387139Y0185672
X01390949Y0185037
X01396029Y0184529
X01399839Y0183894
X01409999Y0178687
X01390729Y0177417
X01397299Y0176401
X01393489Y0173099
X01384599Y01734483
X01375709Y01735276
X01443019Y0178052
X01490009Y0180465
X01509059Y0179449
X01547794Y0182966
X01469689Y0185037
X01507789Y019634
X01540809Y0196467
X01329989Y0192657
X01328719Y0188847
X01318559Y0184402
Y0183005
X01276649Y0187577
X01172509Y0196467
X00997098Y019533
X00982098Y019233
X00952098
X00937098Y018933
X00967098
X00997098
X00982098Y018633
X00952098
X00967098Y018333
X00997098
X00982098Y018033
X01012098
X01014918Y0177798
X00997098Y017733
X00982098Y017433
X00952098
X00937098Y017733
X01012098Y018633
Y019233
X00937098Y019533
X00907098
X00892098Y019233
X00922098
X00907098Y018933
X00877099
X00862099Y018633
X00847099Y018333
X00862099Y018033
X00802099
X00790128Y0179576
X00787099Y018333
X00757099
X00712099Y018633
X00697099Y018933
X00667099
X00637099
X00607099
X00577099
Y018333
X00607099
X00622099Y018033
X00607099Y017733
X00577099
X00637099
X00667099
Y018333
X00652099Y019233
Y019833
X00629908
X00592099
X0058111Y01963401
X00667099Y0202662
X00712099Y020433
X00727099Y020133
X00748378
X00742099Y0199372
X00712099
X00772099Y019833
X00802099
X00832099
X00862099
X00892098
X00877099Y020133
X00847099
X00817099
X00787099
X00772099Y020433
X00802099
X00832099
X00862099
X00892098
X00928558Y0205992
X00832099Y019233
X00802099
X00817099Y018933
Y017733
X00802099Y017433
X00742099
X00693608Y0173734
X00622099Y017433
X00862099
X00922098
X00907098Y017733
X00712099Y019233
X00515808Y0196467
X00482788Y019634
X00495488Y0189736
X00431988Y0190752
X00420558Y0189609
X00388808Y0192403
X00349438Y0191387
Y0195832
X00334198Y0195451
X00320228Y0194816
X00304988Y0192657
X00303718Y0188847
X00293558Y0184402
Y0183005
X00251648Y0187577
X00362138Y0185672
X00365948Y0185037
X00371028Y0184529
X00374838Y0183894
X00384998Y0178687
X00365728Y0177417
X00372298Y0176401
X00368488Y0173099
X00359598Y01734483
X00350708Y01735276
X00418018Y0178052
X00465008Y0180465
X00484058Y0179449
X00522793Y0182966
X00444688Y0185037
X00315148Y0203833
X00147508Y0196467
T03
X01778112Y0020467
Y0022967
X00753111
Y0020467
X01291889Y0183533
Y0186033
X00266888
Y0183533
T04
X01234552Y0044069
X00209551
X00905511Y0066802
X00925831Y0069088
X00836931Y0081153
X00805181Y0079629
X01830182
X01861932Y0081153
X01950832Y0069088
X01930512Y0066802
X01239819Y0126871
X01208069Y0125347
X00214818Y0126871
X00183068Y0125347
X00094168Y0137412
X00114488Y0139698
X00810448Y0162431
X01139489Y0139698
X01119169Y0137412
X01835449Y0162431
T05
X01513952Y0035052
X00488951
X00531048Y0171448
X01556049
T06
X01513952Y0043434
X00488951
X00531048Y0163066
X01556049
T07
X00172721Y0011557
X01197722
X01787902Y003857
X01810402
X01635402
X01612902
X01540622Y0038548
X01466902Y003857
X01444402
X01540622Y0031048
X01294402Y003857
X01271902
X01206612Y0034544
X01156612
X01169782Y0047752
X01132282
X01197722Y0016557
X00785401Y003857
X00762901
X00610401
X00587901
X00515621Y0038548
X00441901Y003857
X00419401
X00269401
X00246901
X00181611Y0034544
X00144781Y0047752
X00172721Y0016557
X00515621Y0031048
X00131611Y0034544
X00107281Y0047752
X00827171Y00889
X00852171
X01852172
X01877172
X01217829Y01176
X01192829
X00192828
X00167828
X00234598Y016793
X00257098
X00409598
X00432098
X00504378Y0167952
X00578098Y016793
X00600598
X00750598
X00773098
X00838388Y0171956
X00888388
X00875218Y0158748
X00912718
X01259599Y016793
X01282099
X01434599
X01457099
X01529379Y0167952
X01603099Y016793
X01625599
X01775599
X01798099
X01863389Y0171956
X01913389
X01900219Y0158748
X01937719
X01872279Y0189943
Y0194943
X01529379Y0175452
X00847278Y0189943
Y0194943
X00504378Y0175452
T08
X00839471Y000254
Y000508
X00839471Y000762
X00839471Y001016
X01864472
X01864472Y000762
X01864472Y000508
Y000254
X01844072Y005266
X01793272
X01765332
X01714532
X01686592
X01635792
X01607852
X01557052
X01485552
X01434752
X01406812
X01356012
X01328072
X01277272
X01249332
X01198532
X00819071
X00768271
X00740331
X00689531
X00661591
X00610791
X00582851
X00532051
X00460551
X00409751
X00381811
X00331011
X00303071
X00252271
X00224331
X00173531
Y00552
Y005774
Y006028
Y006282
X00224331
Y006028
Y005774
Y00552
X00252271
Y005774
Y006028
Y006282
X00303071
Y006028
Y005774
Y00552
X00331011
Y005774
Y006028
Y006282
X00381811
Y006028
Y005774
Y00552
X00409751
Y005774
Y006028
Y006282
X00460551
Y006028
Y005774
Y00552
X00532051
Y005774
Y006028
Y006282
X00519431Y0067564
X00494031
X00468631
X00443231
X00416561
X00391161
X00365761
X00340361
X00314961
X00288501Y006757
X00263101
X00237701
X00212301
X00186901
Y008281
X00212301
X00237701
X00263101
X00288501
X00314961Y0082804
X00340361
X00365761
X00391161
X00416561
X00443231
X00468631
X00494031
X00519431
X00544831
X00571501
X00596901
X00622301
X00647701
X00673101
X00699771
X00725171
X00750571
X00775971
X00801371
Y0067564
X00775971
X00750571
X00725171
X00699771
X00673101
X00647701
X00622301
X00596901
X00571501
X00544831
X00582851Y006282
Y006028
Y005774
Y00552
X00610791
Y005774
Y006028
Y006282
X00661591
Y006028
Y005774
Y00552
X00689531
Y005774
Y006028
Y006282
X00740331
Y006028
Y005774
Y00552
X00768271
Y005774
Y006028
Y006282
X00819071
Y006028
Y005774
Y00552
X01198532
Y005774
Y006028
Y006282
X01249332
Y006028
Y005774
Y00552
X01277272
Y005774
Y006028
Y006282
X01328072
Y006028
Y005774
Y00552
X01313502Y006757
X01288102
X01262702
X01237302
X01211902
Y008281
X01237302
X01262702
X01288102
X01313502
X01339962Y0082804
X01365362
X01390762
X01416162
X01441562
X01468232
X01493632
X01519032
X01544432
X01569832
X01596502
X01621902
X01647302
X01672702
X01698102
X01724772
Y0067564
X01698102
X01672702
X01647302
X01621902
X01596502
X01569832
X01544432
X01519032
X01493632
X01468232
X01441562
X01416162
X01390762
X01365362
X01339962
X01356012Y006282
Y006028
Y005774
Y00552
X01406812
Y005774
Y006028
Y006282
X01434752
Y006028
Y005774
Y00552
X01485552
Y005774
Y006028
Y006282
X01557052
Y006028
Y005774
Y00552
X01607852
Y005774
Y006028
Y006282
X01635792
Y006028
Y005774
Y00552
X01686592
Y005774
Y006028
Y006282
X01714532
Y006028
Y005774
Y00552
X01765332
Y005774
Y006028
Y006282
X01793272
Y006028
Y005774
Y00552
X01844072
Y005774
Y006028
Y006282
X01826372Y0067564
X01800972
X01775572
X01750172
Y0082804
X01775572
X01800972
X01826372
X01832699Y012369
X01807299
X01781899
X01756499
X01858099
X01730039Y0123696
X01704639
X01679239
X01653839
X01628439
X01601769
X01576369
X01550969
X01525569
X01500169
X01473499
X01448099
X01422699
X01397299
X01371899
X01345229
X01319829
X01294429
X01269029
X01243629
X00833098Y012369
X00807698
X00782298
X00756898
X00731498
X00705038Y0123696
X00679638
X00654238
X00628838
X00603438
X00576768
X00551368
X00525968
X00500568
X00475168
X00448498
X00423098
X00397698
X00372298
X00346898
X00320228
X00294828
X00269428
X00244028
X00218628
Y0138936
X00244028
X00269428
X00294828
X00320228
X00346898
X00372298
X00397698
X00423098
X00448498
X00475168
X00500568
X00525968
X00487948Y014368
Y014622
Y014876
Y01513
Y015384
X00437148
Y01513
Y014876
Y014622
Y014368
X00409208
Y014622
Y014876
Y01513
Y015384
X00358408
Y01513
Y014876
Y014622
Y014368
X00330468
Y014622
Y014876
Y01513
Y015384
X00279668
Y01513
Y014876
Y014622
Y014368
X00251728
Y014622
Y014876
Y01513
Y015384
X00200928
Y01513
Y014876
Y014622
Y014368
X00559448
Y014622
Y014876
Y01513
Y015384
X00610248
Y01513
Y014876
Y014622
Y014368
X00638188
Y014622
Y014876
Y01513
Y015384
X00688988
Y01513
Y014876
Y014622
Y014368
X00716928
Y014622
Y014876
Y01513
Y015384
X00767728
Y01513
Y014876
Y014622
Y014368
X00795668
Y014622
Y014876
Y01513
Y015384
X00846468
Y01513
Y014876
Y014622
Y014368
X00833098Y013893
X00807698
X00782298
X00756898
X00731498
X00705038Y0138936
X00679638
X00654238
X00628838
X00603438
X00576768
X00551368
X01243629
X01269029
X01294429
X01319829
X01304669Y014368
Y014622
Y014876
Y01513
Y015384
X01276729
Y01513
Y014876
Y014622
Y014368
X01225929
Y014622
Y014876
Y01513
Y015384
X01355469
Y01513
Y014876
Y014622
Y014368
X01383409
Y014622
Y014876
Y01513
Y015384
X01434209
Y01513
Y014876
Y014622
Y014368
X01462149
Y014622
Y014876
Y01513
Y015384
X01512949
Y01513
Y014876
Y014622
Y014368
X01525569Y0138936
X01550969
X01576369
X01601769
X01628439
X01653839
X01679239
X01704639
X01730039
X01713989Y014368
Y014622
Y014876
Y01513
Y015384
X01663189
Y01513
Y014876
Y014622
Y014368
X01635249
Y014622
Y014876
Y01513
Y015384
X01584449
Y01513
Y014876
Y014622
Y014368
X01500169Y0138936
X01473499
X01448099
X01422699
X01397299
X01371899
X01345229
X01756499Y013893
X01781899
X01807299
X01832699
X01858099
X01871469Y014368
Y014622
Y014876
Y01513
Y015384
X01820669
Y01513
Y014876
Y014622
Y014368
X01792729
Y014622
Y014876
Y01513
Y015384
X01741929
Y01513
Y014876
Y014622
Y014368
X01205529Y019634
X01205529Y019888
X01205529Y020142
Y020396
X00180528
Y020142
X00180528Y019888
X00180528Y019634
T09
X00259081Y0003302
X00284481
X00661851Y00056969
X00643891Y0007493
X0062593Y0009289
X0060797Y00110851
X00679812Y00039009
X01284082Y0003302
X01309482
X01686852Y00056969
X01668892Y0007493
X01650931Y0009289
X01632971Y00110851
X01704813Y00039009
X01829697Y0015781
X01855582Y0036322
X01880982
X01906382
X01931782Y0036322
X01957182Y0036322
X01982582Y0036322
X02002902Y0025781
X01277732Y0030607
X01252332
X00977901Y0025781
X00957581Y0036322
X00932181Y0036322
X00906781Y0036322
X00881381Y0036322
X00855981
X00830581
X00804696Y0015781
X00252731Y0030607
X00227331
X00138618Y0170178
X00113218Y0170178
X00087818Y0170178
X00062418Y0170178
X00164018Y0170178
X00189418
X01087419Y0170178
X01112819Y0170178
X01138219Y0170178
X01163619Y0170178
X01189019
X01214419
X01792269Y0175893
X01817669
X01785919Y0203198
X01760519
X01383149Y02008031
X01401109Y0199007
X0141907Y0197211
X0143703Y01954149
X01365188Y02025991
X01240304Y0190719
X01067099Y0180719
X00792668Y0175893
X00767268
X00760918Y0203198
X00735518
X00358148Y02008031
X00376108Y0199007
X00394069Y0197211
X00412029Y01954149
X00340187Y02025991
X00215303Y0190719
X00042098Y0180719
T10
X00354331Y0005842
X00405131
X00455931
X00506731
X00557531
X01379332
X01430132
X01480932
X01531732
X01582532
X01589069Y0200658
X01538269
X01487469
X01639869
X01690669
X00665668
X00614868
X00564068
X00513268
X00462468
T11
X00808991Y000254
X00808991Y000508
X00808991Y000762
Y001016
X01833992
Y000762
X01833992Y000508
X01833992Y000254
X01236009Y019634
Y019888
X01236009Y020142
X01236009Y020396
X00211008
X00211008Y020142
X00211008Y019888
Y019634
T12
X00355601Y0001778
X00406401
X00457201
X00508001
X00558801
X01380602
X01431402
X01482202
X01533002
X01583802
X01587799Y0204722
X01536999
X01486199
X01638599
X01689399
X00664398
X00613598
X00562798
X00511998
X00461198
T13
X00056901Y000557
X00961901Y000557
X01081902Y000557
X01986902Y000557
X00056901Y009057
X00961901
X01081902
X01986902
X01988099Y011593
X01083099
X00963098
X00058098
X01988099Y020093
X01083099Y020093
X00963098Y020093
X00058098Y020093
M30
