G04*
G04 #@! TF.GenerationSoftware,Altium Limited,Altium Designer,20.0.14 (345)*
G04*
G04 Layer_Color=8388736*
%FSLAX44Y44*%
%MOMM*%
G71*
G01*
G75*
%ADD29R,0.8000X0.3500*%
%ADD40C,0.5000*%
%ADD93R,1.5032X1.9032*%
%ADD94R,0.8382X1.4732*%
%ADD95R,2.7032X2.5032*%
%ADD96R,1.0032X1.1032*%
%ADD97R,1.1032X1.0032*%
%ADD98R,2.7032X1.5032*%
%ADD99R,2.3032X3.4032*%
%ADD100R,2.3032X1.1032*%
%ADD101R,2.7032X6.2032*%
%ADD102R,3.7032X2.2032*%
%ADD103O,0.8532X1.9532*%
%ADD104O,0.8532X2.4532*%
%ADD105R,1.0032X1.2032*%
%ADD106R,1.0032X1.3032*%
%ADD107R,1.7532X0.4532*%
%ADD108R,0.4532X1.7532*%
%ADD109R,1.0032X1.3032*%
%ADD110R,1.3032X1.0032*%
%ADD111R,1.4532X1.0032*%
%ADD112R,6.9532X7.1032*%
%ADD113R,3.1032X2.1032*%
%ADD114R,1.6032X1.2032*%
%ADD115R,1.4032X1.8032*%
%ADD116R,2.7032X1.0032*%
%ADD117O,2.7032X1.0032*%
%ADD118O,1.0032X2.4532*%
%ADD119R,1.9532X4.4232*%
%ADD120R,1.9532X3.0532*%
%ADD121O,2.4532X0.8532*%
%ADD122R,1.1032X1.0032*%
%ADD123R,1.5032X1.9032*%
%ADD124C,2.2032*%
%ADD125C,1.2032*%
%ADD126O,1.7032X2.7032*%
%ADD127R,1.7032X2.7032*%
%ADD128O,1.9532X2.4532*%
%ADD129R,1.9532X2.4532*%
%ADD130O,2.2032X2.7032*%
%ADD131R,2.2032X2.7032*%
%ADD132O,2.7032X3.2032*%
%ADD133R,2.7032X3.2032*%
%ADD134O,1.7032X2.0032*%
%ADD135R,1.7032X2.0032*%
%ADD136O,2.0032X1.7032*%
%ADD137R,2.0032X1.7032*%
%ADD138C,0.2032*%
%ADD139R,2.2032X2.2032*%
%ADD140C,3.2032*%
%ADD141R,3.2032X3.2032*%
%ADD142R,2.2032X2.2032*%
%ADD143P,4.5300X4X255.0*%
%ADD144P,3.1158X4X180.0*%
%ADD145R,3.2032X2.7032*%
%ADD146O,3.2032X2.7032*%
%ADD147C,0.7032*%
D29*
X764541Y254000D02*
D03*
X1789542D02*
D03*
X1280459Y1811000D02*
D03*
X255458D02*
D03*
D40*
X0Y0D02*
X2045000D01*
Y2065000D01*
X0D02*
X2045000D01*
X0Y0D02*
Y2065000D01*
X1Y-0D02*
X1020001D01*
Y957500D01*
X948501Y1030000D02*
X1020001Y958850D01*
X71151Y1030000D02*
X948501D01*
X1Y958850D02*
X71151Y1030000D01*
X1Y-0D02*
Y958850D01*
X1025002Y-0D02*
X2045002D01*
Y957500D01*
X1973502Y1030000D02*
X2045002Y958850D01*
X1096152Y1030000D02*
X1973502D01*
X1025002Y958850D02*
X1096152Y1030000D01*
X1025002Y-0D02*
Y958850D01*
X2044999Y2065000D02*
X1024999D01*
Y1107500D01*
X1096499Y1035000D02*
X1024999Y1106150D01*
X1973849Y1035000D02*
X1096499D01*
X2044999Y1106150D02*
X1973849Y1035000D01*
X2044999Y2065000D02*
Y1106150D01*
X1019998Y2065000D02*
X-2D01*
Y1107500D01*
X71498Y1035000D02*
X-2Y1106150D01*
X948848Y1035000D02*
X71498D01*
X1019998Y1106150D02*
X948848Y1035000D01*
X1019998Y2065000D02*
Y1106150D01*
D93*
X453361Y97790D02*
D03*
X481361D02*
D03*
X312391Y317500D02*
D03*
X340391D02*
D03*
Y288290D02*
D03*
X312391D02*
D03*
X340391Y259080D02*
D03*
X312391D02*
D03*
X1478362Y97790D02*
D03*
X1506362D02*
D03*
X1337392Y317500D02*
D03*
X1365392D02*
D03*
Y288290D02*
D03*
X1337392D02*
D03*
X1365392Y259080D02*
D03*
X1337392D02*
D03*
X1591639Y1967210D02*
D03*
X1563639D02*
D03*
X1732609Y1747500D02*
D03*
X1704609D02*
D03*
X566638Y1967210D02*
D03*
X538638D02*
D03*
X707608Y1747500D02*
D03*
X679608D02*
D03*
D94*
X715011Y39370D02*
D03*
X704851D02*
D03*
X699771Y67310D02*
D03*
X689611D02*
D03*
X769621Y254000D02*
D03*
X759461D02*
D03*
X1740012Y39370D02*
D03*
X1729852D02*
D03*
X1724772Y67310D02*
D03*
X1714612D02*
D03*
X1794622Y254000D02*
D03*
X1784462D02*
D03*
X1329989Y2025630D02*
D03*
X1340149D02*
D03*
X1345229Y1997690D02*
D03*
X1355389D02*
D03*
X1275379Y1811000D02*
D03*
X1285539D02*
D03*
X304988Y2025630D02*
D03*
X315148D02*
D03*
X320228Y1997690D02*
D03*
X330388D02*
D03*
X250378Y1811000D02*
D03*
X260538D02*
D03*
D95*
X430531Y149860D02*
D03*
X385531D02*
D03*
X429261Y191770D02*
D03*
X384261D02*
D03*
X572451Y127000D02*
D03*
X532451D02*
D03*
X1455532Y149860D02*
D03*
X1410532D02*
D03*
X1454262Y191770D02*
D03*
X1409262D02*
D03*
X1597452Y127000D02*
D03*
X1557452D02*
D03*
X1614469Y1915140D02*
D03*
X1659469D02*
D03*
X1615739Y1873230D02*
D03*
X1660739D02*
D03*
X1472549Y1938000D02*
D03*
X1512549D02*
D03*
X589468Y1915140D02*
D03*
X634468D02*
D03*
X590738Y1873230D02*
D03*
X635738D02*
D03*
X447548Y1938000D02*
D03*
X487548D02*
D03*
D96*
X757801Y189230D02*
D03*
X740801D02*
D03*
X49921Y483870D02*
D03*
X66921D02*
D03*
X691761Y91440D02*
D03*
X674761D02*
D03*
X488071Y273050D02*
D03*
X505071D02*
D03*
X534281Y156210D02*
D03*
X517281D02*
D03*
X551571D02*
D03*
X568571D02*
D03*
X548151Y270510D02*
D03*
X565151D02*
D03*
X770891Y203200D02*
D03*
X787891D02*
D03*
X771281Y229870D02*
D03*
X788281D02*
D03*
X651901Y485140D02*
D03*
X668901Y485140D02*
D03*
X651901Y462280D02*
D03*
X668901D02*
D03*
X734451Y35560D02*
D03*
X751451D02*
D03*
X738261Y138430D02*
D03*
X755261Y138430D02*
D03*
X857641Y811530D02*
D03*
X874641D02*
D03*
X716671Y165100D02*
D03*
X733671D02*
D03*
X1782802Y189230D02*
D03*
X1765802D02*
D03*
X1074922Y483870D02*
D03*
X1091922D02*
D03*
X1716762Y91440D02*
D03*
X1699762D02*
D03*
X1513072Y273050D02*
D03*
X1530072D02*
D03*
X1559282Y156210D02*
D03*
X1542282D02*
D03*
X1576572D02*
D03*
X1593572D02*
D03*
X1573152Y270510D02*
D03*
X1590152D02*
D03*
X1795892Y203200D02*
D03*
X1812892D02*
D03*
X1796282Y229870D02*
D03*
X1813282D02*
D03*
X1676902Y485140D02*
D03*
X1693902Y485140D02*
D03*
X1676902Y462280D02*
D03*
X1693902D02*
D03*
X1759452Y35560D02*
D03*
X1776452D02*
D03*
X1763262Y138430D02*
D03*
X1780262Y138430D02*
D03*
X1882642Y811530D02*
D03*
X1899642D02*
D03*
X1741672Y165100D02*
D03*
X1758672D02*
D03*
X1287199Y1875770D02*
D03*
X1304199D02*
D03*
X1995079Y1581130D02*
D03*
X1978079D02*
D03*
X1353239Y1973560D02*
D03*
X1370239D02*
D03*
X1556929Y1791950D02*
D03*
X1539929D02*
D03*
X1510719Y1908790D02*
D03*
X1527719D02*
D03*
X1493429D02*
D03*
X1476429D02*
D03*
X1496849Y1794490D02*
D03*
X1479849D02*
D03*
X1274109Y1861800D02*
D03*
X1257109D02*
D03*
X1273719Y1835130D02*
D03*
X1256719D02*
D03*
X1393099Y1579860D02*
D03*
X1376099Y1579860D02*
D03*
X1393099Y1602720D02*
D03*
X1376099D02*
D03*
X1310549Y2029440D02*
D03*
X1293549D02*
D03*
X1306739Y1926570D02*
D03*
X1289739Y1926570D02*
D03*
X1187359Y1253470D02*
D03*
X1170359D02*
D03*
X1328329Y1899900D02*
D03*
X1311329D02*
D03*
X262198Y1875770D02*
D03*
X279198D02*
D03*
X970078Y1581130D02*
D03*
X953078D02*
D03*
X328238Y1973560D02*
D03*
X345238D02*
D03*
X531928Y1791950D02*
D03*
X514928D02*
D03*
X485718Y1908790D02*
D03*
X502718D02*
D03*
X468428D02*
D03*
X451428D02*
D03*
X471848Y1794490D02*
D03*
X454848D02*
D03*
X249108Y1861800D02*
D03*
X232108D02*
D03*
X248718Y1835130D02*
D03*
X231718D02*
D03*
X368098Y1579860D02*
D03*
X351098Y1579860D02*
D03*
X368098Y1602720D02*
D03*
X351098D02*
D03*
X285548Y2029440D02*
D03*
X268548D02*
D03*
X281738Y1926570D02*
D03*
X264738Y1926570D02*
D03*
X162358Y1253470D02*
D03*
X145358D02*
D03*
X303328Y1899900D02*
D03*
X286328D02*
D03*
D97*
X622301Y47380D02*
D03*
Y64380D02*
D03*
X607061D02*
D03*
Y47380D02*
D03*
X906781Y406010D02*
D03*
Y389010D02*
D03*
X881381Y406010D02*
D03*
Y389010D02*
D03*
X855981Y406010D02*
D03*
Y389010D02*
D03*
X932181Y406010D02*
D03*
Y389010D02*
D03*
X29211Y466480D02*
D03*
Y483480D02*
D03*
Y449190D02*
D03*
Y432190D02*
D03*
X487681Y252340D02*
D03*
Y235340D02*
D03*
X506731D02*
D03*
Y252340D02*
D03*
Y202320D02*
D03*
Y219320D02*
D03*
X487681D02*
D03*
Y202320D02*
D03*
X586741Y170570D02*
D03*
Y187570D02*
D03*
X784861Y58030D02*
D03*
Y41030D02*
D03*
X617221Y268360D02*
D03*
Y285360D02*
D03*
X613411Y168520D02*
D03*
Y151520D02*
D03*
X885191Y437270D02*
D03*
Y454270D02*
D03*
X161291Y420760D02*
D03*
Y437760D02*
D03*
X736601Y254880D02*
D03*
Y237880D02*
D03*
X1647302Y47380D02*
D03*
Y64380D02*
D03*
X1632062D02*
D03*
Y47380D02*
D03*
X1931782Y406010D02*
D03*
Y389010D02*
D03*
X1906382Y406010D02*
D03*
Y389010D02*
D03*
X1880982Y406010D02*
D03*
Y389010D02*
D03*
X1957182Y406010D02*
D03*
Y389010D02*
D03*
X1054212Y466480D02*
D03*
Y483480D02*
D03*
Y449190D02*
D03*
Y432190D02*
D03*
X1512682Y252340D02*
D03*
Y235340D02*
D03*
X1531732D02*
D03*
Y252340D02*
D03*
Y202320D02*
D03*
Y219320D02*
D03*
X1512682D02*
D03*
Y202320D02*
D03*
X1611742Y170570D02*
D03*
Y187570D02*
D03*
X1809862Y58030D02*
D03*
Y41030D02*
D03*
X1642222Y268360D02*
D03*
Y285360D02*
D03*
X1638412Y168520D02*
D03*
Y151520D02*
D03*
X1910192Y437270D02*
D03*
Y454270D02*
D03*
X1186292Y420760D02*
D03*
Y437760D02*
D03*
X1761602Y254880D02*
D03*
Y237880D02*
D03*
X1422699Y2017620D02*
D03*
Y2000620D02*
D03*
X1437939D02*
D03*
Y2017620D02*
D03*
X1557319Y1812660D02*
D03*
Y1829660D02*
D03*
X1538269D02*
D03*
Y1812660D02*
D03*
X1557319Y1845680D02*
D03*
Y1862680D02*
D03*
X1458259Y1894430D02*
D03*
Y1877430D02*
D03*
X1260139Y2006970D02*
D03*
Y2023970D02*
D03*
X1427779Y1796640D02*
D03*
Y1779640D02*
D03*
X1308399Y1810120D02*
D03*
Y1827120D02*
D03*
X397698Y2017620D02*
D03*
Y2000620D02*
D03*
X412938D02*
D03*
Y2017620D02*
D03*
X532318Y1812660D02*
D03*
Y1829660D02*
D03*
X513268D02*
D03*
Y1812660D02*
D03*
X532318Y1845680D02*
D03*
Y1862680D02*
D03*
X433258Y1894430D02*
D03*
Y1877430D02*
D03*
X235138Y2006970D02*
D03*
Y2023970D02*
D03*
X402778Y1796640D02*
D03*
Y1779640D02*
D03*
X283398Y1810120D02*
D03*
Y1827120D02*
D03*
D98*
X123191Y415260D02*
D03*
Y443260D02*
D03*
X1148192Y415260D02*
D03*
Y443260D02*
D03*
X1921809Y1649740D02*
D03*
Y1621740D02*
D03*
X896808Y1649740D02*
D03*
Y1621740D02*
D03*
D99*
X245671Y440690D02*
D03*
X564591Y462280D02*
D03*
X1270672Y440690D02*
D03*
X1589592Y462280D02*
D03*
X1799329Y1624310D02*
D03*
X1480409Y1602720D02*
D03*
X774328Y1624310D02*
D03*
X455408Y1602720D02*
D03*
D100*
X188671Y417690D02*
D03*
Y440690D02*
D03*
Y463690D02*
D03*
X621591Y485280D02*
D03*
X621591Y462280D02*
D03*
X621591Y439280D02*
D03*
X1213672Y417690D02*
D03*
Y440690D02*
D03*
Y463690D02*
D03*
X1646592Y485280D02*
D03*
X1646592Y462280D02*
D03*
X1646592Y439280D02*
D03*
X1856329Y1647310D02*
D03*
Y1624310D02*
D03*
Y1601310D02*
D03*
X1423409Y1579720D02*
D03*
X1423409Y1602720D02*
D03*
X1423409Y1625720D02*
D03*
X831328Y1647310D02*
D03*
Y1624310D02*
D03*
Y1601310D02*
D03*
X398408Y1579720D02*
D03*
X398408Y1602720D02*
D03*
X398408Y1625720D02*
D03*
D101*
X48891Y537210D02*
D03*
X95891D02*
D03*
X1073892D02*
D03*
X1120892D02*
D03*
X1996109Y1527790D02*
D03*
X1949109D02*
D03*
X971108D02*
D03*
X924108D02*
D03*
D102*
X68581Y431800D02*
D03*
X1093582D02*
D03*
X1976419Y1633200D02*
D03*
X951418D02*
D03*
D103*
X49531Y403970D02*
D03*
X62231D02*
D03*
X74931D02*
D03*
X87631D02*
D03*
X49531Y459470D02*
D03*
X62231D02*
D03*
X74931D02*
D03*
X87631D02*
D03*
X1074532Y403970D02*
D03*
X1087232D02*
D03*
X1099932D02*
D03*
X1112632D02*
D03*
X1074532Y459470D02*
D03*
X1087232D02*
D03*
X1099932D02*
D03*
X1112632D02*
D03*
X1995469Y1661030D02*
D03*
X1982769D02*
D03*
X1970069D02*
D03*
X1957369D02*
D03*
X1995469Y1605530D02*
D03*
X1982769D02*
D03*
X1970069D02*
D03*
X1957369D02*
D03*
X970468Y1661030D02*
D03*
X957768D02*
D03*
X945068D02*
D03*
X932368D02*
D03*
X970468Y1605530D02*
D03*
X957768D02*
D03*
X945068D02*
D03*
X932368D02*
D03*
D104*
X567691Y241030D02*
D03*
X554991D02*
D03*
X542291D02*
D03*
X529591D02*
D03*
X567691Y185530D02*
D03*
X554991D02*
D03*
X542291D02*
D03*
X529591D02*
D03*
X1592692Y241030D02*
D03*
X1579992D02*
D03*
X1567292D02*
D03*
X1554592D02*
D03*
X1592692Y185530D02*
D03*
X1579992D02*
D03*
X1567292D02*
D03*
X1554592D02*
D03*
X1477309Y1823970D02*
D03*
X1490009D02*
D03*
X1502709D02*
D03*
X1515409D02*
D03*
X1477309Y1879470D02*
D03*
X1490009D02*
D03*
X1502709D02*
D03*
X1515409D02*
D03*
X452308Y1823970D02*
D03*
X465008D02*
D03*
X477708D02*
D03*
X490408D02*
D03*
X452308Y1879470D02*
D03*
X465008D02*
D03*
X477708D02*
D03*
X490408D02*
D03*
D105*
X491491Y164630D02*
D03*
X1516492D02*
D03*
X1553509Y1900370D02*
D03*
X528508D02*
D03*
D106*
X481991Y137630D02*
D03*
X500991D02*
D03*
X1506992D02*
D03*
X1525992D02*
D03*
X1563009Y1927370D02*
D03*
X1544009D02*
D03*
X538008D02*
D03*
X519008D02*
D03*
D107*
X710481Y188400D02*
D03*
Y193400D02*
D03*
Y198400D02*
D03*
Y203400D02*
D03*
X710481Y208400D02*
D03*
Y213400D02*
D03*
Y218400D02*
D03*
X710481Y223400D02*
D03*
Y228400D02*
D03*
Y233400D02*
D03*
Y238400D02*
D03*
Y243400D02*
D03*
X620481D02*
D03*
Y238400D02*
D03*
Y233400D02*
D03*
Y228400D02*
D03*
Y223400D02*
D03*
X620481Y218400D02*
D03*
Y213400D02*
D03*
Y208400D02*
D03*
X620481Y203400D02*
D03*
Y198400D02*
D03*
Y193400D02*
D03*
Y188400D02*
D03*
X1735482D02*
D03*
Y193400D02*
D03*
Y198400D02*
D03*
Y203400D02*
D03*
X1735482Y208400D02*
D03*
Y213400D02*
D03*
Y218400D02*
D03*
X1735482Y223400D02*
D03*
Y228400D02*
D03*
Y233400D02*
D03*
Y238400D02*
D03*
Y243400D02*
D03*
X1645482D02*
D03*
Y238400D02*
D03*
Y233400D02*
D03*
Y228400D02*
D03*
Y223400D02*
D03*
X1645482Y218400D02*
D03*
Y213400D02*
D03*
Y208400D02*
D03*
X1645482Y203400D02*
D03*
Y198400D02*
D03*
Y193400D02*
D03*
Y188400D02*
D03*
X1334519Y1876600D02*
D03*
Y1871600D02*
D03*
Y1866600D02*
D03*
Y1861600D02*
D03*
X1334519Y1856600D02*
D03*
Y1851600D02*
D03*
Y1846600D02*
D03*
X1334519Y1841600D02*
D03*
Y1836600D02*
D03*
Y1831600D02*
D03*
Y1826600D02*
D03*
Y1821600D02*
D03*
X1424519D02*
D03*
Y1826600D02*
D03*
Y1831600D02*
D03*
Y1836600D02*
D03*
Y1841600D02*
D03*
X1424519Y1846600D02*
D03*
Y1851600D02*
D03*
Y1856600D02*
D03*
X1424519Y1861600D02*
D03*
Y1866600D02*
D03*
Y1871600D02*
D03*
Y1876600D02*
D03*
X309518D02*
D03*
Y1871600D02*
D03*
Y1866600D02*
D03*
Y1861600D02*
D03*
X309518Y1856600D02*
D03*
Y1851600D02*
D03*
Y1846600D02*
D03*
X309518Y1841600D02*
D03*
Y1836600D02*
D03*
Y1831600D02*
D03*
Y1826600D02*
D03*
Y1821600D02*
D03*
X399518D02*
D03*
Y1826600D02*
D03*
Y1831600D02*
D03*
Y1836600D02*
D03*
Y1841600D02*
D03*
X399518Y1846600D02*
D03*
Y1851600D02*
D03*
Y1856600D02*
D03*
X399518Y1861600D02*
D03*
Y1866600D02*
D03*
Y1871600D02*
D03*
Y1876600D02*
D03*
D108*
X692981Y260900D02*
D03*
X687981D02*
D03*
X682981Y260900D02*
D03*
X677981D02*
D03*
X672981D02*
D03*
X667981D02*
D03*
X662981D02*
D03*
X657981Y260900D02*
D03*
X652981Y260900D02*
D03*
X647981D02*
D03*
X642981D02*
D03*
X637981D02*
D03*
Y170900D02*
D03*
X642981D02*
D03*
X647981D02*
D03*
X652981D02*
D03*
X657981Y170900D02*
D03*
X662981Y170900D02*
D03*
X667981D02*
D03*
X672981D02*
D03*
X677981D02*
D03*
X682981D02*
D03*
X687981Y170900D02*
D03*
X692981D02*
D03*
X1717982Y260900D02*
D03*
X1712982D02*
D03*
X1707982Y260900D02*
D03*
X1702982D02*
D03*
X1697982D02*
D03*
X1692982D02*
D03*
X1687982D02*
D03*
X1682982Y260900D02*
D03*
X1677982Y260900D02*
D03*
X1672982D02*
D03*
X1667982D02*
D03*
X1662982D02*
D03*
Y170900D02*
D03*
X1667982D02*
D03*
X1672982D02*
D03*
X1677982D02*
D03*
X1682982Y170900D02*
D03*
X1687982Y170900D02*
D03*
X1692982D02*
D03*
X1697982D02*
D03*
X1702982D02*
D03*
X1707982D02*
D03*
X1712982Y170900D02*
D03*
X1717982D02*
D03*
X1352019Y1804100D02*
D03*
X1357019D02*
D03*
X1362019Y1804100D02*
D03*
X1367019D02*
D03*
X1372019D02*
D03*
X1377019D02*
D03*
X1382019D02*
D03*
X1387019Y1804100D02*
D03*
X1392019Y1804100D02*
D03*
X1397019D02*
D03*
X1402019D02*
D03*
X1407019D02*
D03*
Y1894100D02*
D03*
X1402019D02*
D03*
X1397019D02*
D03*
X1392019D02*
D03*
X1387019Y1894100D02*
D03*
X1382019Y1894100D02*
D03*
X1377019D02*
D03*
X1372019D02*
D03*
X1367019D02*
D03*
X1362019D02*
D03*
X1357019Y1894100D02*
D03*
X1352019D02*
D03*
X327018Y1804100D02*
D03*
X332018D02*
D03*
X337018Y1804100D02*
D03*
X342018D02*
D03*
X347018D02*
D03*
X352018D02*
D03*
X357018D02*
D03*
X362018Y1804100D02*
D03*
X367018Y1804100D02*
D03*
X372018D02*
D03*
X377018D02*
D03*
X382018D02*
D03*
Y1894100D02*
D03*
X377018D02*
D03*
X372018D02*
D03*
X367018D02*
D03*
X362018Y1894100D02*
D03*
X357018Y1894100D02*
D03*
X352018D02*
D03*
X347018D02*
D03*
X342018D02*
D03*
X337018D02*
D03*
X332018Y1894100D02*
D03*
X327018D02*
D03*
D109*
X944001Y557530D02*
D03*
X961001D02*
D03*
Y539750D02*
D03*
X944001D02*
D03*
X615511Y317500D02*
D03*
X632511D02*
D03*
X482991Y118110D02*
D03*
X499991D02*
D03*
X1969002Y557530D02*
D03*
X1986002D02*
D03*
Y539750D02*
D03*
X1969002D02*
D03*
X1640512Y317500D02*
D03*
X1657512D02*
D03*
X1507992Y118110D02*
D03*
X1524992D02*
D03*
X1100999Y1507470D02*
D03*
X1083999D02*
D03*
Y1525250D02*
D03*
X1100999D02*
D03*
X1429489Y1747500D02*
D03*
X1412489D02*
D03*
X1562009Y1946890D02*
D03*
X1545009D02*
D03*
X75998Y1507470D02*
D03*
X58998D02*
D03*
Y1525250D02*
D03*
X75998D02*
D03*
X404488Y1747500D02*
D03*
X387488D02*
D03*
X537008Y1946890D02*
D03*
X520008D02*
D03*
D110*
X915671Y516500D02*
D03*
Y499500D02*
D03*
X933451D02*
D03*
Y516500D02*
D03*
X1940672D02*
D03*
Y499500D02*
D03*
X1958452D02*
D03*
Y516500D02*
D03*
X1129329Y1548500D02*
D03*
Y1565500D02*
D03*
X1111549D02*
D03*
Y1548500D02*
D03*
X104328D02*
D03*
Y1565500D02*
D03*
X86548D02*
D03*
Y1548500D02*
D03*
D111*
X576901Y886200D02*
D03*
Y905200D02*
D03*
X606901Y895700D02*
D03*
X466331Y991260D02*
D03*
Y1010260D02*
D03*
X496331Y1000760D02*
D03*
X1601902Y886200D02*
D03*
Y905200D02*
D03*
X1631902Y895700D02*
D03*
X1491332Y991260D02*
D03*
Y1010260D02*
D03*
X1521332Y1000760D02*
D03*
X1468099Y1178800D02*
D03*
Y1159800D02*
D03*
X1438099Y1169300D02*
D03*
X1578669Y1073740D02*
D03*
Y1054740D02*
D03*
X1548669Y1064240D02*
D03*
X443098Y1178800D02*
D03*
Y1159800D02*
D03*
X413098Y1169300D02*
D03*
X553668Y1073740D02*
D03*
Y1054740D02*
D03*
X523668Y1064240D02*
D03*
D112*
X107951Y226060D02*
D03*
X257811Y167640D02*
D03*
X1132952Y226060D02*
D03*
X1282812Y167640D02*
D03*
X1937049Y1838940D02*
D03*
X1787189Y1897360D02*
D03*
X912048Y1838940D02*
D03*
X762188Y1897360D02*
D03*
D113*
X178951Y248860D02*
D03*
Y203260D02*
D03*
X328811Y190440D02*
D03*
Y144840D02*
D03*
X1203952Y248860D02*
D03*
Y203260D02*
D03*
X1353812Y190440D02*
D03*
Y144840D02*
D03*
X1866049Y1816140D02*
D03*
Y1861740D02*
D03*
X1716189Y1874560D02*
D03*
Y1920160D02*
D03*
X841048Y1816140D02*
D03*
Y1861740D02*
D03*
X691188Y1874560D02*
D03*
Y1920160D02*
D03*
D114*
X578951Y307436D02*
D03*
Y326436D02*
D03*
X554451Y316936D02*
D03*
X1603952Y307436D02*
D03*
Y326436D02*
D03*
X1579452Y316936D02*
D03*
X1466049Y1757564D02*
D03*
Y1738564D02*
D03*
X1490549Y1748064D02*
D03*
X441048Y1757564D02*
D03*
Y1738564D02*
D03*
X465548Y1748064D02*
D03*
D115*
X63611Y346710D02*
D03*
X45611D02*
D03*
X1088612D02*
D03*
X1070612D02*
D03*
X1981389Y1718290D02*
D03*
X1999389D02*
D03*
X956388D02*
D03*
X974388D02*
D03*
D116*
X976631Y617220D02*
D03*
X2001632D02*
D03*
X1068369Y1447780D02*
D03*
X43368D02*
D03*
D117*
X976631Y629920D02*
D03*
Y642620D02*
D03*
Y655320D02*
D03*
Y668020D02*
D03*
Y680720D02*
D03*
Y693420D02*
D03*
Y706120D02*
D03*
Y718820D02*
D03*
Y731520D02*
D03*
Y744220D02*
D03*
Y756920D02*
D03*
Y769620D02*
D03*
Y782320D02*
D03*
X876131D02*
D03*
Y769620D02*
D03*
Y756920D02*
D03*
Y744220D02*
D03*
Y731520D02*
D03*
Y718820D02*
D03*
Y706120D02*
D03*
Y693420D02*
D03*
Y680720D02*
D03*
Y668020D02*
D03*
Y655320D02*
D03*
Y642620D02*
D03*
Y629920D02*
D03*
Y617220D02*
D03*
X2001632Y629920D02*
D03*
Y642620D02*
D03*
Y655320D02*
D03*
Y668020D02*
D03*
Y680720D02*
D03*
Y693420D02*
D03*
Y706120D02*
D03*
Y718820D02*
D03*
Y731520D02*
D03*
Y744220D02*
D03*
Y756920D02*
D03*
Y769620D02*
D03*
Y782320D02*
D03*
X1901132D02*
D03*
Y769620D02*
D03*
Y756920D02*
D03*
Y744220D02*
D03*
Y731520D02*
D03*
Y718820D02*
D03*
Y706120D02*
D03*
Y693420D02*
D03*
Y680720D02*
D03*
Y668020D02*
D03*
Y655320D02*
D03*
Y642620D02*
D03*
Y629920D02*
D03*
Y617220D02*
D03*
X1068369Y1435080D02*
D03*
Y1422380D02*
D03*
Y1409680D02*
D03*
Y1396980D02*
D03*
Y1384280D02*
D03*
Y1371580D02*
D03*
Y1358880D02*
D03*
Y1346180D02*
D03*
Y1333480D02*
D03*
Y1320780D02*
D03*
Y1308080D02*
D03*
Y1295380D02*
D03*
Y1282680D02*
D03*
X1168869D02*
D03*
Y1295380D02*
D03*
Y1308080D02*
D03*
Y1320780D02*
D03*
Y1333480D02*
D03*
Y1346180D02*
D03*
Y1358880D02*
D03*
Y1371580D02*
D03*
Y1384280D02*
D03*
Y1396980D02*
D03*
Y1409680D02*
D03*
Y1422380D02*
D03*
Y1435080D02*
D03*
Y1447780D02*
D03*
X43368Y1435080D02*
D03*
Y1422380D02*
D03*
Y1409680D02*
D03*
Y1396980D02*
D03*
Y1384280D02*
D03*
Y1371580D02*
D03*
Y1358880D02*
D03*
Y1346180D02*
D03*
Y1333480D02*
D03*
Y1320780D02*
D03*
Y1308080D02*
D03*
Y1295380D02*
D03*
Y1282680D02*
D03*
X143868D02*
D03*
Y1295380D02*
D03*
Y1308080D02*
D03*
Y1320780D02*
D03*
Y1333480D02*
D03*
Y1346180D02*
D03*
Y1358880D02*
D03*
Y1371580D02*
D03*
Y1384280D02*
D03*
Y1396980D02*
D03*
Y1409680D02*
D03*
Y1422380D02*
D03*
Y1435080D02*
D03*
Y1447780D02*
D03*
D118*
X726441Y58690D02*
D03*
X739141D02*
D03*
X751841D02*
D03*
X764541D02*
D03*
X726441Y114190D02*
D03*
X739141D02*
D03*
X751841D02*
D03*
X764541D02*
D03*
X1751442Y58690D02*
D03*
X1764142D02*
D03*
X1776842D02*
D03*
X1789542D02*
D03*
X1751442Y114190D02*
D03*
X1764142D02*
D03*
X1776842D02*
D03*
X1789542D02*
D03*
X1318559Y2006310D02*
D03*
X1305859D02*
D03*
X1293159D02*
D03*
X1280459D02*
D03*
X1318559Y1950810D02*
D03*
X1305859D02*
D03*
X1293159D02*
D03*
X1280459D02*
D03*
X293558Y2006310D02*
D03*
X280858D02*
D03*
X268158D02*
D03*
X255458D02*
D03*
X293558Y1950810D02*
D03*
X280858D02*
D03*
X268158D02*
D03*
X255458D02*
D03*
D119*
X130941Y295910D02*
D03*
X178941D02*
D03*
X1155942D02*
D03*
X1203942D02*
D03*
X1914059Y1769090D02*
D03*
X1866059D02*
D03*
X889058D02*
D03*
X841058D02*
D03*
D120*
X423031Y316230D02*
D03*
X374531D02*
D03*
X421761Y259080D02*
D03*
X373261D02*
D03*
X1448032Y316230D02*
D03*
X1399532D02*
D03*
X1446762Y259080D02*
D03*
X1398262D02*
D03*
X1621969Y1748770D02*
D03*
X1670469D02*
D03*
X1623239Y1805920D02*
D03*
X1671739D02*
D03*
X596968Y1748770D02*
D03*
X645468D02*
D03*
X598238Y1805920D02*
D03*
X646738D02*
D03*
D121*
X971441Y439420D02*
D03*
Y452120D02*
D03*
Y464820D02*
D03*
Y477520D02*
D03*
X915941Y439420D02*
D03*
Y452120D02*
D03*
Y464820D02*
D03*
Y477520D02*
D03*
X1996442Y439420D02*
D03*
Y452120D02*
D03*
Y464820D02*
D03*
Y477520D02*
D03*
X1940942Y439420D02*
D03*
Y452120D02*
D03*
Y464820D02*
D03*
Y477520D02*
D03*
X1073559Y1625580D02*
D03*
Y1612880D02*
D03*
Y1600180D02*
D03*
Y1587480D02*
D03*
X1129059Y1625580D02*
D03*
Y1612880D02*
D03*
Y1600180D02*
D03*
Y1587480D02*
D03*
X48558Y1625580D02*
D03*
Y1612880D02*
D03*
Y1600180D02*
D03*
Y1587480D02*
D03*
X104058Y1625580D02*
D03*
Y1612880D02*
D03*
Y1600180D02*
D03*
Y1587480D02*
D03*
D122*
X1138219Y1658990D02*
D03*
Y1675990D02*
D03*
X1163619Y1658990D02*
D03*
Y1675990D02*
D03*
X1189019Y1658990D02*
D03*
Y1675990D02*
D03*
X1112819Y1658990D02*
D03*
Y1675990D02*
D03*
X2015789Y1598520D02*
D03*
Y1581520D02*
D03*
Y1615810D02*
D03*
Y1632810D02*
D03*
X1538269Y1862680D02*
D03*
Y1845680D02*
D03*
X1431589Y1896480D02*
D03*
Y1913480D02*
D03*
X1159809Y1627730D02*
D03*
Y1610730D02*
D03*
X1883709Y1644240D02*
D03*
Y1627240D02*
D03*
X113218Y1658990D02*
D03*
Y1675990D02*
D03*
X138618Y1658990D02*
D03*
Y1675990D02*
D03*
X164018Y1658990D02*
D03*
Y1675990D02*
D03*
X87818Y1658990D02*
D03*
Y1675990D02*
D03*
X990788Y1598520D02*
D03*
Y1581520D02*
D03*
Y1615810D02*
D03*
Y1632810D02*
D03*
X513268Y1862680D02*
D03*
Y1845680D02*
D03*
X406588Y1896480D02*
D03*
Y1913480D02*
D03*
X134808Y1627730D02*
D03*
Y1610730D02*
D03*
X858708Y1644240D02*
D03*
Y1627240D02*
D03*
D123*
X1704609Y1776710D02*
D03*
X1732609D02*
D03*
X1704609Y1805920D02*
D03*
X1732609D02*
D03*
X679608Y1776710D02*
D03*
X707608D02*
D03*
X679608Y1805920D02*
D03*
X707608D02*
D03*
D124*
X957581Y363220D02*
D03*
X259081Y33020D02*
D03*
X839471Y76200D02*
D03*
X839471Y50800D02*
D03*
Y25400D02*
D03*
X607970Y110851D02*
D03*
X625930Y92890D02*
D03*
X643891Y74930D02*
D03*
X661851Y56969D02*
D03*
X906781Y363220D02*
D03*
X881381Y363220D02*
D03*
X855981D02*
D03*
X830581D02*
D03*
X252731Y306070D02*
D03*
X1982582Y363220D02*
D03*
X1284082Y33020D02*
D03*
X1864472Y76200D02*
D03*
X1864472Y50800D02*
D03*
Y25400D02*
D03*
X1632971Y110851D02*
D03*
X1650931Y92890D02*
D03*
X1668892Y74930D02*
D03*
X1686852Y56969D02*
D03*
X1931782Y363220D02*
D03*
X1906382Y363220D02*
D03*
X1880982D02*
D03*
X1855582D02*
D03*
X1277732Y306070D02*
D03*
X1087419Y1701780D02*
D03*
X1785919Y2031980D02*
D03*
X1205529Y1988800D02*
D03*
X1205529Y2014200D02*
D03*
Y2039600D02*
D03*
X1437030Y1954149D02*
D03*
X1419070Y1972110D02*
D03*
X1401109Y1990070D02*
D03*
X1383149Y2008031D02*
D03*
X1138219Y1701780D02*
D03*
X1163619Y1701780D02*
D03*
X1189019D02*
D03*
X1214419D02*
D03*
X1792269Y1758930D02*
D03*
X62418Y1701780D02*
D03*
X760918Y2031980D02*
D03*
X180528Y1988800D02*
D03*
X180528Y2014200D02*
D03*
Y2039600D02*
D03*
X412029Y1954149D02*
D03*
X394069Y1972110D02*
D03*
X376108Y1990070D02*
D03*
X358148Y2008031D02*
D03*
X113218Y1701780D02*
D03*
X138618Y1701780D02*
D03*
X164018D02*
D03*
X189418D02*
D03*
X767268Y1758930D02*
D03*
D125*
X753111Y229670D02*
D03*
Y204670D02*
D03*
X1778112Y229670D02*
D03*
Y204670D02*
D03*
X1291889Y1835330D02*
D03*
Y1860330D02*
D03*
X266888Y1835330D02*
D03*
Y1860330D02*
D03*
D126*
X441901Y385700D02*
D03*
X610401D02*
D03*
X785401D02*
D03*
X269401D02*
D03*
X1466902D02*
D03*
X1635402D02*
D03*
X1810402D02*
D03*
X1294402D02*
D03*
X1603099Y1679300D02*
D03*
X1434599D02*
D03*
X1259599D02*
D03*
X1775599D02*
D03*
X578098D02*
D03*
X409598D02*
D03*
X234598D02*
D03*
X750598D02*
D03*
D127*
X419401Y385700D02*
D03*
X587901D02*
D03*
X762901D02*
D03*
X246901D02*
D03*
X1444402D02*
D03*
X1612902D02*
D03*
X1787902D02*
D03*
X1271902D02*
D03*
X1625599Y1679300D02*
D03*
X1457099D02*
D03*
X1282099D02*
D03*
X1798099D02*
D03*
X600598D02*
D03*
X432098D02*
D03*
X257098D02*
D03*
X773098D02*
D03*
D128*
X827171Y889000D02*
D03*
X1852172D02*
D03*
X1217829Y1176000D02*
D03*
X192828D02*
D03*
D129*
X852171Y889000D02*
D03*
X1877172D02*
D03*
X1192829Y1176000D02*
D03*
X167828D02*
D03*
D130*
X144781Y477520D02*
D03*
X1169782D02*
D03*
X1900219Y1587480D02*
D03*
X875218D02*
D03*
D131*
X107281Y477520D02*
D03*
X1132282D02*
D03*
X1937719Y1587480D02*
D03*
X912718D02*
D03*
D132*
X181611Y345440D02*
D03*
X1206612D02*
D03*
X1863389Y1719560D02*
D03*
X838388D02*
D03*
D133*
X131611Y345440D02*
D03*
X1156612D02*
D03*
X1913389Y1719560D02*
D03*
X888388D02*
D03*
D134*
X288501Y828100D02*
D03*
X263101D02*
D03*
X237701D02*
D03*
X212301D02*
D03*
X186901D02*
D03*
X288501Y675700D02*
D03*
X263101D02*
D03*
X237701D02*
D03*
X212301D02*
D03*
X468631Y675640D02*
D03*
X494031D02*
D03*
X519431D02*
D03*
X544831D02*
D03*
X443231Y828040D02*
D03*
X468631D02*
D03*
X494031D02*
D03*
X519431D02*
D03*
X544831D02*
D03*
X673101D02*
D03*
X647701D02*
D03*
X622301D02*
D03*
X596901D02*
D03*
X571501D02*
D03*
X673101Y675640D02*
D03*
X647701D02*
D03*
X622301D02*
D03*
X596901D02*
D03*
X725171D02*
D03*
X750571D02*
D03*
X775971D02*
D03*
X801371D02*
D03*
X699771Y828040D02*
D03*
X725171D02*
D03*
X750571D02*
D03*
X775971D02*
D03*
X801371D02*
D03*
X416561D02*
D03*
X391161D02*
D03*
X365761D02*
D03*
X340361D02*
D03*
X314961D02*
D03*
X416561Y675640D02*
D03*
X391161D02*
D03*
X365761D02*
D03*
X340361D02*
D03*
X1313502Y828100D02*
D03*
X1288102D02*
D03*
X1262702D02*
D03*
X1237302D02*
D03*
X1211902D02*
D03*
X1313502Y675700D02*
D03*
X1288102D02*
D03*
X1262702D02*
D03*
X1237302D02*
D03*
X1493632Y675640D02*
D03*
X1519032D02*
D03*
X1544432D02*
D03*
X1569832D02*
D03*
X1468232Y828040D02*
D03*
X1493632D02*
D03*
X1519032D02*
D03*
X1544432D02*
D03*
X1569832D02*
D03*
X1698102D02*
D03*
X1672702D02*
D03*
X1647302D02*
D03*
X1621902D02*
D03*
X1596502D02*
D03*
X1698102Y675640D02*
D03*
X1672702D02*
D03*
X1647302D02*
D03*
X1621902D02*
D03*
X1750172D02*
D03*
X1775572D02*
D03*
X1800972D02*
D03*
X1826372D02*
D03*
X1724772Y828040D02*
D03*
X1750172D02*
D03*
X1775572D02*
D03*
X1800972D02*
D03*
X1826372D02*
D03*
X1441562D02*
D03*
X1416162D02*
D03*
X1390762D02*
D03*
X1365362D02*
D03*
X1339962D02*
D03*
X1441562Y675640D02*
D03*
X1416162D02*
D03*
X1390762D02*
D03*
X1365362D02*
D03*
X1756499Y1236900D02*
D03*
X1781899D02*
D03*
X1807299D02*
D03*
X1832699D02*
D03*
X1858099D02*
D03*
X1756499Y1389300D02*
D03*
X1781899D02*
D03*
X1807299D02*
D03*
X1832699D02*
D03*
X1576369Y1389360D02*
D03*
X1550969D02*
D03*
X1525569D02*
D03*
X1500169D02*
D03*
X1601769Y1236960D02*
D03*
X1576369D02*
D03*
X1550969D02*
D03*
X1525569D02*
D03*
X1500169D02*
D03*
X1371899D02*
D03*
X1397299D02*
D03*
X1422699D02*
D03*
X1448099D02*
D03*
X1473499D02*
D03*
X1371899Y1389360D02*
D03*
X1397299D02*
D03*
X1422699D02*
D03*
X1448099D02*
D03*
X1319829D02*
D03*
X1294429D02*
D03*
X1269029D02*
D03*
X1243629D02*
D03*
X1345229Y1236960D02*
D03*
X1319829D02*
D03*
X1294429D02*
D03*
X1269029D02*
D03*
X1243629D02*
D03*
X1628439D02*
D03*
X1653839D02*
D03*
X1679239D02*
D03*
X1704639D02*
D03*
X1730039D02*
D03*
X1628439Y1389360D02*
D03*
X1653839D02*
D03*
X1679239D02*
D03*
X1704639D02*
D03*
X731498Y1236900D02*
D03*
X756898D02*
D03*
X782298D02*
D03*
X807698D02*
D03*
X833098D02*
D03*
X731498Y1389300D02*
D03*
X756898D02*
D03*
X782298D02*
D03*
X807698D02*
D03*
X551368Y1389360D02*
D03*
X525968D02*
D03*
X500568D02*
D03*
X475168D02*
D03*
X576768Y1236960D02*
D03*
X551368D02*
D03*
X525968D02*
D03*
X500568D02*
D03*
X475168D02*
D03*
X346898D02*
D03*
X372298D02*
D03*
X397698D02*
D03*
X423098D02*
D03*
X448498D02*
D03*
X346898Y1389360D02*
D03*
X372298D02*
D03*
X397698D02*
D03*
X423098D02*
D03*
X294828D02*
D03*
X269428D02*
D03*
X244028D02*
D03*
X218628D02*
D03*
X320228Y1236960D02*
D03*
X294828D02*
D03*
X269428D02*
D03*
X244028D02*
D03*
X218628D02*
D03*
X603438D02*
D03*
X628838D02*
D03*
X654238D02*
D03*
X679638D02*
D03*
X705038D02*
D03*
X603438Y1389360D02*
D03*
X628838D02*
D03*
X654238D02*
D03*
X679638D02*
D03*
D135*
X186901Y675700D02*
D03*
X443231Y675640D02*
D03*
X571501D02*
D03*
X699771D02*
D03*
X314961D02*
D03*
X1211902Y675700D02*
D03*
X1468232Y675640D02*
D03*
X1596502D02*
D03*
X1724772D02*
D03*
X1339962D02*
D03*
X1858099Y1389300D02*
D03*
X1601769Y1389360D02*
D03*
X1473499D02*
D03*
X1345229D02*
D03*
X1730039D02*
D03*
X833098Y1389300D02*
D03*
X576768Y1389360D02*
D03*
X448498D02*
D03*
X320228D02*
D03*
X705038D02*
D03*
D136*
X224331Y526600D02*
D03*
Y552000D02*
D03*
Y577400D02*
D03*
Y602800D02*
D03*
Y628200D02*
D03*
X173531Y526600D02*
D03*
Y552000D02*
D03*
Y577400D02*
D03*
Y602800D02*
D03*
X252271D02*
D03*
Y577400D02*
D03*
Y552000D02*
D03*
Y526600D02*
D03*
X303071Y628200D02*
D03*
Y602800D02*
D03*
Y577400D02*
D03*
Y552000D02*
D03*
Y526600D02*
D03*
X381811D02*
D03*
Y552000D02*
D03*
Y577400D02*
D03*
Y602800D02*
D03*
Y628200D02*
D03*
X331011Y526600D02*
D03*
Y552000D02*
D03*
Y577400D02*
D03*
Y602800D02*
D03*
X409751D02*
D03*
Y577400D02*
D03*
Y552000D02*
D03*
Y526600D02*
D03*
X460551Y628200D02*
D03*
Y602800D02*
D03*
Y577400D02*
D03*
Y552000D02*
D03*
Y526600D02*
D03*
X582851D02*
D03*
Y552000D02*
D03*
Y577400D02*
D03*
Y602800D02*
D03*
Y628200D02*
D03*
X532051Y526600D02*
D03*
Y552000D02*
D03*
Y577400D02*
D03*
Y602800D02*
D03*
X610791D02*
D03*
Y577400D02*
D03*
Y552000D02*
D03*
Y526600D02*
D03*
X661591Y628200D02*
D03*
Y602800D02*
D03*
Y577400D02*
D03*
Y552000D02*
D03*
Y526600D02*
D03*
X740331D02*
D03*
Y552000D02*
D03*
Y577400D02*
D03*
Y602800D02*
D03*
Y628200D02*
D03*
X689531Y526600D02*
D03*
Y552000D02*
D03*
Y577400D02*
D03*
Y602800D02*
D03*
X768271D02*
D03*
Y577400D02*
D03*
Y552000D02*
D03*
Y526600D02*
D03*
X819071Y628200D02*
D03*
Y602800D02*
D03*
Y577400D02*
D03*
Y552000D02*
D03*
Y526600D02*
D03*
X1249332D02*
D03*
Y552000D02*
D03*
Y577400D02*
D03*
Y602800D02*
D03*
Y628200D02*
D03*
X1198532Y526600D02*
D03*
Y552000D02*
D03*
Y577400D02*
D03*
Y602800D02*
D03*
X1277272D02*
D03*
Y577400D02*
D03*
Y552000D02*
D03*
Y526600D02*
D03*
X1328072Y628200D02*
D03*
Y602800D02*
D03*
Y577400D02*
D03*
Y552000D02*
D03*
Y526600D02*
D03*
X1406812D02*
D03*
Y552000D02*
D03*
Y577400D02*
D03*
Y602800D02*
D03*
Y628200D02*
D03*
X1356012Y526600D02*
D03*
Y552000D02*
D03*
Y577400D02*
D03*
Y602800D02*
D03*
X1434752D02*
D03*
Y577400D02*
D03*
Y552000D02*
D03*
Y526600D02*
D03*
X1485552Y628200D02*
D03*
Y602800D02*
D03*
Y577400D02*
D03*
Y552000D02*
D03*
Y526600D02*
D03*
X1607852D02*
D03*
Y552000D02*
D03*
Y577400D02*
D03*
Y602800D02*
D03*
Y628200D02*
D03*
X1557052Y526600D02*
D03*
Y552000D02*
D03*
Y577400D02*
D03*
Y602800D02*
D03*
X1635792D02*
D03*
Y577400D02*
D03*
Y552000D02*
D03*
Y526600D02*
D03*
X1686592Y628200D02*
D03*
Y602800D02*
D03*
Y577400D02*
D03*
Y552000D02*
D03*
Y526600D02*
D03*
X1765332D02*
D03*
Y552000D02*
D03*
Y577400D02*
D03*
Y602800D02*
D03*
Y628200D02*
D03*
X1714532Y526600D02*
D03*
Y552000D02*
D03*
Y577400D02*
D03*
Y602800D02*
D03*
X1793272D02*
D03*
Y577400D02*
D03*
Y552000D02*
D03*
Y526600D02*
D03*
X1844072Y628200D02*
D03*
Y602800D02*
D03*
Y577400D02*
D03*
Y552000D02*
D03*
Y526600D02*
D03*
X1820669Y1538400D02*
D03*
Y1513000D02*
D03*
Y1487600D02*
D03*
Y1462200D02*
D03*
Y1436800D02*
D03*
X1871469Y1538400D02*
D03*
Y1513000D02*
D03*
Y1487600D02*
D03*
Y1462200D02*
D03*
X1792729D02*
D03*
Y1487600D02*
D03*
Y1513000D02*
D03*
Y1538400D02*
D03*
X1741929Y1436800D02*
D03*
Y1462200D02*
D03*
Y1487600D02*
D03*
Y1513000D02*
D03*
Y1538400D02*
D03*
X1663189D02*
D03*
Y1513000D02*
D03*
Y1487600D02*
D03*
Y1462200D02*
D03*
Y1436800D02*
D03*
X1713989Y1538400D02*
D03*
Y1513000D02*
D03*
Y1487600D02*
D03*
Y1462200D02*
D03*
X1635249D02*
D03*
Y1487600D02*
D03*
Y1513000D02*
D03*
Y1538400D02*
D03*
X1584449Y1436800D02*
D03*
Y1462200D02*
D03*
Y1487600D02*
D03*
Y1513000D02*
D03*
Y1538400D02*
D03*
X1462149D02*
D03*
Y1513000D02*
D03*
Y1487600D02*
D03*
Y1462200D02*
D03*
Y1436800D02*
D03*
X1512949Y1538400D02*
D03*
Y1513000D02*
D03*
Y1487600D02*
D03*
Y1462200D02*
D03*
X1434209D02*
D03*
Y1487600D02*
D03*
Y1513000D02*
D03*
Y1538400D02*
D03*
X1383409Y1436800D02*
D03*
Y1462200D02*
D03*
Y1487600D02*
D03*
Y1513000D02*
D03*
Y1538400D02*
D03*
X1304669D02*
D03*
Y1513000D02*
D03*
Y1487600D02*
D03*
Y1462200D02*
D03*
Y1436800D02*
D03*
X1355469Y1538400D02*
D03*
Y1513000D02*
D03*
Y1487600D02*
D03*
Y1462200D02*
D03*
X1276729D02*
D03*
Y1487600D02*
D03*
Y1513000D02*
D03*
Y1538400D02*
D03*
X1225929Y1436800D02*
D03*
Y1462200D02*
D03*
Y1487600D02*
D03*
Y1513000D02*
D03*
Y1538400D02*
D03*
X795668D02*
D03*
Y1513000D02*
D03*
Y1487600D02*
D03*
Y1462200D02*
D03*
Y1436800D02*
D03*
X846468Y1538400D02*
D03*
Y1513000D02*
D03*
Y1487600D02*
D03*
Y1462200D02*
D03*
X767728D02*
D03*
Y1487600D02*
D03*
Y1513000D02*
D03*
Y1538400D02*
D03*
X716928Y1436800D02*
D03*
Y1462200D02*
D03*
Y1487600D02*
D03*
Y1513000D02*
D03*
Y1538400D02*
D03*
X638188D02*
D03*
Y1513000D02*
D03*
Y1487600D02*
D03*
Y1462200D02*
D03*
Y1436800D02*
D03*
X688988Y1538400D02*
D03*
Y1513000D02*
D03*
Y1487600D02*
D03*
Y1462200D02*
D03*
X610248D02*
D03*
Y1487600D02*
D03*
Y1513000D02*
D03*
Y1538400D02*
D03*
X559448Y1436800D02*
D03*
Y1462200D02*
D03*
Y1487600D02*
D03*
Y1513000D02*
D03*
Y1538400D02*
D03*
X437148D02*
D03*
Y1513000D02*
D03*
Y1487600D02*
D03*
Y1462200D02*
D03*
Y1436800D02*
D03*
X487948Y1538400D02*
D03*
Y1513000D02*
D03*
Y1487600D02*
D03*
Y1462200D02*
D03*
X409208D02*
D03*
Y1487600D02*
D03*
Y1513000D02*
D03*
Y1538400D02*
D03*
X358408Y1436800D02*
D03*
Y1462200D02*
D03*
Y1487600D02*
D03*
Y1513000D02*
D03*
Y1538400D02*
D03*
X279668D02*
D03*
Y1513000D02*
D03*
Y1487600D02*
D03*
Y1462200D02*
D03*
Y1436800D02*
D03*
X330468Y1538400D02*
D03*
Y1513000D02*
D03*
Y1487600D02*
D03*
Y1462200D02*
D03*
X251728D02*
D03*
Y1487600D02*
D03*
Y1513000D02*
D03*
Y1538400D02*
D03*
X200928Y1436800D02*
D03*
Y1462200D02*
D03*
Y1487600D02*
D03*
Y1513000D02*
D03*
Y1538400D02*
D03*
D137*
X173531Y628200D02*
D03*
X252271D02*
D03*
X331011D02*
D03*
X409751D02*
D03*
X532051D02*
D03*
X610791D02*
D03*
X689531D02*
D03*
X768271D02*
D03*
X1198532D02*
D03*
X1277272D02*
D03*
X1356012D02*
D03*
X1434752D02*
D03*
X1557052D02*
D03*
X1635792D02*
D03*
X1714532D02*
D03*
X1793272D02*
D03*
X1871469Y1436800D02*
D03*
X1792729D02*
D03*
X1713989D02*
D03*
X1635249D02*
D03*
X1512949D02*
D03*
X1434209D02*
D03*
X1355469D02*
D03*
X1276729D02*
D03*
X846468D02*
D03*
X767728D02*
D03*
X688988D02*
D03*
X610248D02*
D03*
X487948D02*
D03*
X409208D02*
D03*
X330468D02*
D03*
X251728D02*
D03*
D138*
X808991Y25400D02*
D03*
X808991Y50800D02*
D03*
X808991Y76200D02*
D03*
Y101600D02*
D03*
X56901Y55700D02*
D03*
X961901Y55700D02*
D03*
Y905700D02*
D03*
X56901D02*
D03*
X558801Y17780D02*
D03*
X508001D02*
D03*
X457201D02*
D03*
X406401D02*
D03*
X355601D02*
D03*
X1833992Y25400D02*
D03*
X1833992Y50800D02*
D03*
X1833992Y76200D02*
D03*
Y101600D02*
D03*
X1081902Y55700D02*
D03*
X1986902Y55700D02*
D03*
Y905700D02*
D03*
X1081902D02*
D03*
X1583802Y17780D02*
D03*
X1533002D02*
D03*
X1482202D02*
D03*
X1431402D02*
D03*
X1380602D02*
D03*
X1236009Y2039600D02*
D03*
X1236009Y2014200D02*
D03*
X1236009Y1988800D02*
D03*
Y1963400D02*
D03*
X1988099Y2009300D02*
D03*
X1083099Y2009300D02*
D03*
Y1159300D02*
D03*
X1988099D02*
D03*
X1486199Y2047220D02*
D03*
X1536999D02*
D03*
X1587799D02*
D03*
X1638599D02*
D03*
X1689399D02*
D03*
X211008Y2039600D02*
D03*
X211008Y2014200D02*
D03*
X211008Y1988800D02*
D03*
Y1963400D02*
D03*
X963098Y2009300D02*
D03*
X58098Y2009300D02*
D03*
Y1159300D02*
D03*
X963098D02*
D03*
X461198Y2047220D02*
D03*
X511998D02*
D03*
X562798D02*
D03*
X613598D02*
D03*
X664398D02*
D03*
D139*
X284481Y33020D02*
D03*
X932181Y363220D02*
D03*
X227331Y306070D02*
D03*
X1309482Y33020D02*
D03*
X1957182Y363220D02*
D03*
X1252332Y306070D02*
D03*
X1760519Y2031980D02*
D03*
X1112819Y1701780D02*
D03*
X1817669Y1758930D02*
D03*
X735518Y2031980D02*
D03*
X87818Y1701780D02*
D03*
X792668Y1758930D02*
D03*
D140*
X557531Y58420D02*
D03*
X506731D02*
D03*
X405131D02*
D03*
X455931D02*
D03*
X977901Y257810D02*
D03*
X515621Y310480D02*
D03*
X1582532Y58420D02*
D03*
X1531732D02*
D03*
X1430132D02*
D03*
X1480932D02*
D03*
X2002902Y257810D02*
D03*
X1540622Y310480D02*
D03*
X1487469Y2006580D02*
D03*
X1538269D02*
D03*
X1639869D02*
D03*
X1589069D02*
D03*
X1067099Y1807190D02*
D03*
X1529379Y1754520D02*
D03*
X462468Y2006580D02*
D03*
X513268D02*
D03*
X614868D02*
D03*
X564068D02*
D03*
X42098Y1807190D02*
D03*
X504378Y1754520D02*
D03*
D141*
X354331Y58420D02*
D03*
X1379332D02*
D03*
X1690669Y2006580D02*
D03*
X665668D02*
D03*
D142*
X839471Y101600D02*
D03*
X1864472D02*
D03*
X1205529Y1963400D02*
D03*
X180528D02*
D03*
D143*
X804696Y157810D02*
D03*
X1829697D02*
D03*
X1240304Y1907190D02*
D03*
X215303D02*
D03*
D144*
X679812Y39009D02*
D03*
X1704813D02*
D03*
X1365188Y2025991D02*
D03*
X340187D02*
D03*
D145*
X172721Y115570D02*
D03*
X515621Y385480D02*
D03*
X1197722Y115570D02*
D03*
X1540622Y385480D02*
D03*
X1872279Y1949430D02*
D03*
X1529379Y1679520D02*
D03*
X847278Y1949430D02*
D03*
X504378Y1679520D02*
D03*
D146*
X172721Y165570D02*
D03*
X1197722D02*
D03*
X1872279Y1899430D02*
D03*
X847278D02*
D03*
D147*
X810261Y336550D02*
D03*
X828041D02*
D03*
X1835262D02*
D03*
X1853042D02*
D03*
X1234739Y1728450D02*
D03*
X1216959D02*
D03*
X209738D02*
D03*
X191958D02*
D03*
M02*
