G04*
G04 #@! TF.GenerationSoftware,Altium Limited,Altium Designer,20.0.14 (345)*
G04*
G04 Layer_Color=16711935*
%FSLAX44Y44*%
%MOMM*%
G71*
G01*
G75*
%ADD40C,0.5000*%
%ADD94R,0.8382X1.4732*%
%ADD96R,1.0032X1.1032*%
%ADD97R,1.1032X1.0032*%
%ADD124C,2.2032*%
%ADD125C,1.2032*%
%ADD126O,1.7032X2.7032*%
%ADD127R,1.7032X2.7032*%
%ADD128O,1.9532X2.4532*%
%ADD129R,1.9532X2.4532*%
%ADD130O,2.2032X2.7032*%
%ADD131R,2.2032X2.7032*%
%ADD132O,2.7032X3.2032*%
%ADD133R,2.7032X3.2032*%
%ADD134O,1.7032X2.0032*%
%ADD135R,1.7032X2.0032*%
%ADD136O,2.0032X1.7032*%
%ADD137R,2.0032X1.7032*%
%ADD138C,0.2032*%
%ADD139R,2.2032X2.2032*%
%ADD140C,3.2032*%
%ADD141R,3.2032X3.2032*%
%ADD142R,2.2032X2.2032*%
%ADD143P,4.5300X4X255.0*%
%ADD144P,3.1158X4X180.0*%
%ADD145R,3.2032X2.7032*%
%ADD146O,3.2032X2.7032*%
%ADD147C,0.7032*%
%ADD148R,1.9050X0.7366*%
%ADD149O,3.2032X5.2032*%
%ADD150R,1.4732X0.8382*%
D40*
X0Y0D02*
X2045000D01*
Y2065000D01*
X0D02*
X2045000D01*
X0Y0D02*
Y2065000D01*
X1Y-0D02*
X1020001D01*
Y957500D01*
X948501Y1030000D02*
X1020001Y958850D01*
X71151Y1030000D02*
X948501D01*
X1Y958850D02*
X71151Y1030000D01*
X1Y-0D02*
Y958850D01*
X1025002Y-0D02*
X2045002D01*
Y957500D01*
X1973502Y1030000D02*
X2045002Y958850D01*
X1096152Y1030000D02*
X1973502D01*
X1025002Y958850D02*
X1096152Y1030000D01*
X1025002Y-0D02*
Y958850D01*
X2044999Y2065000D02*
X1024999D01*
Y1107500D01*
X1096499Y1035000D02*
X1024999Y1106150D01*
X1973849Y1035000D02*
X1096499D01*
X2044999Y1106150D02*
X1973849Y1035000D01*
X2044999Y2065000D02*
Y1106150D01*
X1019998Y2065000D02*
X-2D01*
Y1107500D01*
X71498Y1035000D02*
X-2Y1106150D01*
X948848Y1035000D02*
X71498D01*
X1019998Y1106150D02*
X948848Y1035000D01*
X1019998Y2065000D02*
Y1106150D01*
D94*
X525781Y100330D02*
D03*
X515621D02*
D03*
X1550782D02*
D03*
X1540622D02*
D03*
X1519219Y1964670D02*
D03*
X1529379D02*
D03*
X494218D02*
D03*
X504378D02*
D03*
D96*
X489341Y219710D02*
D03*
X506341D02*
D03*
X1514342D02*
D03*
X1531342D02*
D03*
X1555659Y1845290D02*
D03*
X1538659D02*
D03*
X530658D02*
D03*
X513658D02*
D03*
D97*
X74931Y350910D02*
D03*
Y367910D02*
D03*
X88901Y350910D02*
D03*
Y367910D02*
D03*
X1099932Y350910D02*
D03*
Y367910D02*
D03*
X1113902Y350910D02*
D03*
Y367910D02*
D03*
X1970069Y1714090D02*
D03*
Y1697090D02*
D03*
X1956099Y1714090D02*
D03*
Y1697090D02*
D03*
X945068Y1714090D02*
D03*
Y1697090D02*
D03*
X931098Y1714090D02*
D03*
Y1697090D02*
D03*
D124*
X957581Y363220D02*
D03*
X259081Y33020D02*
D03*
X839471Y76200D02*
D03*
X839471Y50800D02*
D03*
Y25400D02*
D03*
X607970Y110851D02*
D03*
X625930Y92890D02*
D03*
X643891Y74930D02*
D03*
X661851Y56969D02*
D03*
X906781Y363220D02*
D03*
X881381Y363220D02*
D03*
X855981D02*
D03*
X830581D02*
D03*
X252731Y306070D02*
D03*
X1982582Y363220D02*
D03*
X1284082Y33020D02*
D03*
X1864472Y76200D02*
D03*
X1864472Y50800D02*
D03*
Y25400D02*
D03*
X1632971Y110851D02*
D03*
X1650931Y92890D02*
D03*
X1668892Y74930D02*
D03*
X1686852Y56969D02*
D03*
X1931782Y363220D02*
D03*
X1906382Y363220D02*
D03*
X1880982D02*
D03*
X1855582D02*
D03*
X1277732Y306070D02*
D03*
X1087419Y1701780D02*
D03*
X1785919Y2031980D02*
D03*
X1205529Y1988800D02*
D03*
X1205529Y2014200D02*
D03*
Y2039600D02*
D03*
X1437030Y1954149D02*
D03*
X1419070Y1972110D02*
D03*
X1401109Y1990070D02*
D03*
X1383149Y2008031D02*
D03*
X1138219Y1701780D02*
D03*
X1163619Y1701780D02*
D03*
X1189019D02*
D03*
X1214419D02*
D03*
X1792269Y1758930D02*
D03*
X62418Y1701780D02*
D03*
X760918Y2031980D02*
D03*
X180528Y1988800D02*
D03*
X180528Y2014200D02*
D03*
Y2039600D02*
D03*
X412029Y1954149D02*
D03*
X394069Y1972110D02*
D03*
X376108Y1990070D02*
D03*
X358148Y2008031D02*
D03*
X113218Y1701780D02*
D03*
X138618Y1701780D02*
D03*
X164018D02*
D03*
X189418D02*
D03*
X767268Y1758930D02*
D03*
D125*
X753111Y229670D02*
D03*
Y204670D02*
D03*
X1778112Y229670D02*
D03*
Y204670D02*
D03*
X1291889Y1835330D02*
D03*
Y1860330D02*
D03*
X266888Y1835330D02*
D03*
Y1860330D02*
D03*
D126*
X441901Y385700D02*
D03*
X610401D02*
D03*
X785401D02*
D03*
X269401D02*
D03*
X1466902D02*
D03*
X1635402D02*
D03*
X1810402D02*
D03*
X1294402D02*
D03*
X1603099Y1679300D02*
D03*
X1434599D02*
D03*
X1259599D02*
D03*
X1775599D02*
D03*
X578098D02*
D03*
X409598D02*
D03*
X234598D02*
D03*
X750598D02*
D03*
D127*
X419401Y385700D02*
D03*
X587901D02*
D03*
X762901D02*
D03*
X246901D02*
D03*
X1444402D02*
D03*
X1612902D02*
D03*
X1787902D02*
D03*
X1271902D02*
D03*
X1625599Y1679300D02*
D03*
X1457099D02*
D03*
X1282099D02*
D03*
X1798099D02*
D03*
X600598D02*
D03*
X432098D02*
D03*
X257098D02*
D03*
X773098D02*
D03*
D128*
X827171Y889000D02*
D03*
X1852172D02*
D03*
X1217829Y1176000D02*
D03*
X192828D02*
D03*
D129*
X852171Y889000D02*
D03*
X1877172D02*
D03*
X1192829Y1176000D02*
D03*
X167828D02*
D03*
D130*
X144781Y477520D02*
D03*
X1169782D02*
D03*
X1900219Y1587480D02*
D03*
X875218D02*
D03*
D131*
X107281Y477520D02*
D03*
X1132282D02*
D03*
X1937719Y1587480D02*
D03*
X912718D02*
D03*
D132*
X181611Y345440D02*
D03*
X1206612D02*
D03*
X1863389Y1719560D02*
D03*
X838388D02*
D03*
D133*
X131611Y345440D02*
D03*
X1156612D02*
D03*
X1913389Y1719560D02*
D03*
X888388D02*
D03*
D134*
X288501Y828100D02*
D03*
X263101D02*
D03*
X237701D02*
D03*
X212301D02*
D03*
X186901D02*
D03*
X288501Y675700D02*
D03*
X263101D02*
D03*
X237701D02*
D03*
X212301D02*
D03*
X468631Y675640D02*
D03*
X494031D02*
D03*
X519431D02*
D03*
X544831D02*
D03*
X443231Y828040D02*
D03*
X468631D02*
D03*
X494031D02*
D03*
X519431D02*
D03*
X544831D02*
D03*
X673101D02*
D03*
X647701D02*
D03*
X622301D02*
D03*
X596901D02*
D03*
X571501D02*
D03*
X673101Y675640D02*
D03*
X647701D02*
D03*
X622301D02*
D03*
X596901D02*
D03*
X725171D02*
D03*
X750571D02*
D03*
X775971D02*
D03*
X801371D02*
D03*
X699771Y828040D02*
D03*
X725171D02*
D03*
X750571D02*
D03*
X775971D02*
D03*
X801371D02*
D03*
X416561D02*
D03*
X391161D02*
D03*
X365761D02*
D03*
X340361D02*
D03*
X314961D02*
D03*
X416561Y675640D02*
D03*
X391161D02*
D03*
X365761D02*
D03*
X340361D02*
D03*
X1313502Y828100D02*
D03*
X1288102D02*
D03*
X1262702D02*
D03*
X1237302D02*
D03*
X1211902D02*
D03*
X1313502Y675700D02*
D03*
X1288102D02*
D03*
X1262702D02*
D03*
X1237302D02*
D03*
X1493632Y675640D02*
D03*
X1519032D02*
D03*
X1544432D02*
D03*
X1569832D02*
D03*
X1468232Y828040D02*
D03*
X1493632D02*
D03*
X1519032D02*
D03*
X1544432D02*
D03*
X1569832D02*
D03*
X1698102D02*
D03*
X1672702D02*
D03*
X1647302D02*
D03*
X1621902D02*
D03*
X1596502D02*
D03*
X1698102Y675640D02*
D03*
X1672702D02*
D03*
X1647302D02*
D03*
X1621902D02*
D03*
X1750172D02*
D03*
X1775572D02*
D03*
X1800972D02*
D03*
X1826372D02*
D03*
X1724772Y828040D02*
D03*
X1750172D02*
D03*
X1775572D02*
D03*
X1800972D02*
D03*
X1826372D02*
D03*
X1441562D02*
D03*
X1416162D02*
D03*
X1390762D02*
D03*
X1365362D02*
D03*
X1339962D02*
D03*
X1441562Y675640D02*
D03*
X1416162D02*
D03*
X1390762D02*
D03*
X1365362D02*
D03*
X1756499Y1236900D02*
D03*
X1781899D02*
D03*
X1807299D02*
D03*
X1832699D02*
D03*
X1858099D02*
D03*
X1756499Y1389300D02*
D03*
X1781899D02*
D03*
X1807299D02*
D03*
X1832699D02*
D03*
X1576369Y1389360D02*
D03*
X1550969D02*
D03*
X1525569D02*
D03*
X1500169D02*
D03*
X1601769Y1236960D02*
D03*
X1576369D02*
D03*
X1550969D02*
D03*
X1525569D02*
D03*
X1500169D02*
D03*
X1371899D02*
D03*
X1397299D02*
D03*
X1422699D02*
D03*
X1448099D02*
D03*
X1473499D02*
D03*
X1371899Y1389360D02*
D03*
X1397299D02*
D03*
X1422699D02*
D03*
X1448099D02*
D03*
X1319829D02*
D03*
X1294429D02*
D03*
X1269029D02*
D03*
X1243629D02*
D03*
X1345229Y1236960D02*
D03*
X1319829D02*
D03*
X1294429D02*
D03*
X1269029D02*
D03*
X1243629D02*
D03*
X1628439D02*
D03*
X1653839D02*
D03*
X1679239D02*
D03*
X1704639D02*
D03*
X1730039D02*
D03*
X1628439Y1389360D02*
D03*
X1653839D02*
D03*
X1679239D02*
D03*
X1704639D02*
D03*
X731498Y1236900D02*
D03*
X756898D02*
D03*
X782298D02*
D03*
X807698D02*
D03*
X833098D02*
D03*
X731498Y1389300D02*
D03*
X756898D02*
D03*
X782298D02*
D03*
X807698D02*
D03*
X551368Y1389360D02*
D03*
X525968D02*
D03*
X500568D02*
D03*
X475168D02*
D03*
X576768Y1236960D02*
D03*
X551368D02*
D03*
X525968D02*
D03*
X500568D02*
D03*
X475168D02*
D03*
X346898D02*
D03*
X372298D02*
D03*
X397698D02*
D03*
X423098D02*
D03*
X448498D02*
D03*
X346898Y1389360D02*
D03*
X372298D02*
D03*
X397698D02*
D03*
X423098D02*
D03*
X294828D02*
D03*
X269428D02*
D03*
X244028D02*
D03*
X218628D02*
D03*
X320228Y1236960D02*
D03*
X294828D02*
D03*
X269428D02*
D03*
X244028D02*
D03*
X218628D02*
D03*
X603438D02*
D03*
X628838D02*
D03*
X654238D02*
D03*
X679638D02*
D03*
X705038D02*
D03*
X603438Y1389360D02*
D03*
X628838D02*
D03*
X654238D02*
D03*
X679638D02*
D03*
D135*
X186901Y675700D02*
D03*
X443231Y675640D02*
D03*
X571501D02*
D03*
X699771D02*
D03*
X314961D02*
D03*
X1211902Y675700D02*
D03*
X1468232Y675640D02*
D03*
X1596502D02*
D03*
X1724772D02*
D03*
X1339962D02*
D03*
X1858099Y1389300D02*
D03*
X1601769Y1389360D02*
D03*
X1473499D02*
D03*
X1345229D02*
D03*
X1730039D02*
D03*
X833098Y1389300D02*
D03*
X576768Y1389360D02*
D03*
X448498D02*
D03*
X320228D02*
D03*
X705038D02*
D03*
D136*
X224331Y526600D02*
D03*
Y552000D02*
D03*
Y577400D02*
D03*
Y602800D02*
D03*
Y628200D02*
D03*
X173531Y526600D02*
D03*
Y552000D02*
D03*
Y577400D02*
D03*
Y602800D02*
D03*
X252271D02*
D03*
Y577400D02*
D03*
Y552000D02*
D03*
Y526600D02*
D03*
X303071Y628200D02*
D03*
Y602800D02*
D03*
Y577400D02*
D03*
Y552000D02*
D03*
Y526600D02*
D03*
X381811D02*
D03*
Y552000D02*
D03*
Y577400D02*
D03*
Y602800D02*
D03*
Y628200D02*
D03*
X331011Y526600D02*
D03*
Y552000D02*
D03*
Y577400D02*
D03*
Y602800D02*
D03*
X409751D02*
D03*
Y577400D02*
D03*
Y552000D02*
D03*
Y526600D02*
D03*
X460551Y628200D02*
D03*
Y602800D02*
D03*
Y577400D02*
D03*
Y552000D02*
D03*
Y526600D02*
D03*
X582851D02*
D03*
Y552000D02*
D03*
Y577400D02*
D03*
Y602800D02*
D03*
Y628200D02*
D03*
X532051Y526600D02*
D03*
Y552000D02*
D03*
Y577400D02*
D03*
Y602800D02*
D03*
X610791D02*
D03*
Y577400D02*
D03*
Y552000D02*
D03*
Y526600D02*
D03*
X661591Y628200D02*
D03*
Y602800D02*
D03*
Y577400D02*
D03*
Y552000D02*
D03*
Y526600D02*
D03*
X740331D02*
D03*
Y552000D02*
D03*
Y577400D02*
D03*
Y602800D02*
D03*
Y628200D02*
D03*
X689531Y526600D02*
D03*
Y552000D02*
D03*
Y577400D02*
D03*
Y602800D02*
D03*
X768271D02*
D03*
Y577400D02*
D03*
Y552000D02*
D03*
Y526600D02*
D03*
X819071Y628200D02*
D03*
Y602800D02*
D03*
Y577400D02*
D03*
Y552000D02*
D03*
Y526600D02*
D03*
X1249332D02*
D03*
Y552000D02*
D03*
Y577400D02*
D03*
Y602800D02*
D03*
Y628200D02*
D03*
X1198532Y526600D02*
D03*
Y552000D02*
D03*
Y577400D02*
D03*
Y602800D02*
D03*
X1277272D02*
D03*
Y577400D02*
D03*
Y552000D02*
D03*
Y526600D02*
D03*
X1328072Y628200D02*
D03*
Y602800D02*
D03*
Y577400D02*
D03*
Y552000D02*
D03*
Y526600D02*
D03*
X1406812D02*
D03*
Y552000D02*
D03*
Y577400D02*
D03*
Y602800D02*
D03*
Y628200D02*
D03*
X1356012Y526600D02*
D03*
Y552000D02*
D03*
Y577400D02*
D03*
Y602800D02*
D03*
X1434752D02*
D03*
Y577400D02*
D03*
Y552000D02*
D03*
Y526600D02*
D03*
X1485552Y628200D02*
D03*
Y602800D02*
D03*
Y577400D02*
D03*
Y552000D02*
D03*
Y526600D02*
D03*
X1607852D02*
D03*
Y552000D02*
D03*
Y577400D02*
D03*
Y602800D02*
D03*
Y628200D02*
D03*
X1557052Y526600D02*
D03*
Y552000D02*
D03*
Y577400D02*
D03*
Y602800D02*
D03*
X1635792D02*
D03*
Y577400D02*
D03*
Y552000D02*
D03*
Y526600D02*
D03*
X1686592Y628200D02*
D03*
Y602800D02*
D03*
Y577400D02*
D03*
Y552000D02*
D03*
Y526600D02*
D03*
X1765332D02*
D03*
Y552000D02*
D03*
Y577400D02*
D03*
Y602800D02*
D03*
Y628200D02*
D03*
X1714532Y526600D02*
D03*
Y552000D02*
D03*
Y577400D02*
D03*
Y602800D02*
D03*
X1793272D02*
D03*
Y577400D02*
D03*
Y552000D02*
D03*
Y526600D02*
D03*
X1844072Y628200D02*
D03*
Y602800D02*
D03*
Y577400D02*
D03*
Y552000D02*
D03*
Y526600D02*
D03*
X1820669Y1538400D02*
D03*
Y1513000D02*
D03*
Y1487600D02*
D03*
Y1462200D02*
D03*
Y1436800D02*
D03*
X1871469Y1538400D02*
D03*
Y1513000D02*
D03*
Y1487600D02*
D03*
Y1462200D02*
D03*
X1792729D02*
D03*
Y1487600D02*
D03*
Y1513000D02*
D03*
Y1538400D02*
D03*
X1741929Y1436800D02*
D03*
Y1462200D02*
D03*
Y1487600D02*
D03*
Y1513000D02*
D03*
Y1538400D02*
D03*
X1663189D02*
D03*
Y1513000D02*
D03*
Y1487600D02*
D03*
Y1462200D02*
D03*
Y1436800D02*
D03*
X1713989Y1538400D02*
D03*
Y1513000D02*
D03*
Y1487600D02*
D03*
Y1462200D02*
D03*
X1635249D02*
D03*
Y1487600D02*
D03*
Y1513000D02*
D03*
Y1538400D02*
D03*
X1584449Y1436800D02*
D03*
Y1462200D02*
D03*
Y1487600D02*
D03*
Y1513000D02*
D03*
Y1538400D02*
D03*
X1462149D02*
D03*
Y1513000D02*
D03*
Y1487600D02*
D03*
Y1462200D02*
D03*
Y1436800D02*
D03*
X1512949Y1538400D02*
D03*
Y1513000D02*
D03*
Y1487600D02*
D03*
Y1462200D02*
D03*
X1434209D02*
D03*
Y1487600D02*
D03*
Y1513000D02*
D03*
Y1538400D02*
D03*
X1383409Y1436800D02*
D03*
Y1462200D02*
D03*
Y1487600D02*
D03*
Y1513000D02*
D03*
Y1538400D02*
D03*
X1304669D02*
D03*
Y1513000D02*
D03*
Y1487600D02*
D03*
Y1462200D02*
D03*
Y1436800D02*
D03*
X1355469Y1538400D02*
D03*
Y1513000D02*
D03*
Y1487600D02*
D03*
Y1462200D02*
D03*
X1276729D02*
D03*
Y1487600D02*
D03*
Y1513000D02*
D03*
Y1538400D02*
D03*
X1225929Y1436800D02*
D03*
Y1462200D02*
D03*
Y1487600D02*
D03*
Y1513000D02*
D03*
Y1538400D02*
D03*
X795668D02*
D03*
Y1513000D02*
D03*
Y1487600D02*
D03*
Y1462200D02*
D03*
Y1436800D02*
D03*
X846468Y1538400D02*
D03*
Y1513000D02*
D03*
Y1487600D02*
D03*
Y1462200D02*
D03*
X767728D02*
D03*
Y1487600D02*
D03*
Y1513000D02*
D03*
Y1538400D02*
D03*
X716928Y1436800D02*
D03*
Y1462200D02*
D03*
Y1487600D02*
D03*
Y1513000D02*
D03*
Y1538400D02*
D03*
X638188D02*
D03*
Y1513000D02*
D03*
Y1487600D02*
D03*
Y1462200D02*
D03*
Y1436800D02*
D03*
X688988Y1538400D02*
D03*
Y1513000D02*
D03*
Y1487600D02*
D03*
Y1462200D02*
D03*
X610248D02*
D03*
Y1487600D02*
D03*
Y1513000D02*
D03*
Y1538400D02*
D03*
X559448Y1436800D02*
D03*
Y1462200D02*
D03*
Y1487600D02*
D03*
Y1513000D02*
D03*
Y1538400D02*
D03*
X437148D02*
D03*
Y1513000D02*
D03*
Y1487600D02*
D03*
Y1462200D02*
D03*
Y1436800D02*
D03*
X487948Y1538400D02*
D03*
Y1513000D02*
D03*
Y1487600D02*
D03*
Y1462200D02*
D03*
X409208D02*
D03*
Y1487600D02*
D03*
Y1513000D02*
D03*
Y1538400D02*
D03*
X358408Y1436800D02*
D03*
Y1462200D02*
D03*
Y1487600D02*
D03*
Y1513000D02*
D03*
Y1538400D02*
D03*
X279668D02*
D03*
Y1513000D02*
D03*
Y1487600D02*
D03*
Y1462200D02*
D03*
Y1436800D02*
D03*
X330468Y1538400D02*
D03*
Y1513000D02*
D03*
Y1487600D02*
D03*
Y1462200D02*
D03*
X251728D02*
D03*
Y1487600D02*
D03*
Y1513000D02*
D03*
Y1538400D02*
D03*
X200928Y1436800D02*
D03*
Y1462200D02*
D03*
Y1487600D02*
D03*
Y1513000D02*
D03*
Y1538400D02*
D03*
D137*
X173531Y628200D02*
D03*
X252271D02*
D03*
X331011D02*
D03*
X409751D02*
D03*
X532051D02*
D03*
X610791D02*
D03*
X689531D02*
D03*
X768271D02*
D03*
X1198532D02*
D03*
X1277272D02*
D03*
X1356012D02*
D03*
X1434752D02*
D03*
X1557052D02*
D03*
X1635792D02*
D03*
X1714532D02*
D03*
X1793272D02*
D03*
X1871469Y1436800D02*
D03*
X1792729D02*
D03*
X1713989D02*
D03*
X1635249D02*
D03*
X1512949D02*
D03*
X1434209D02*
D03*
X1355469D02*
D03*
X1276729D02*
D03*
X846468D02*
D03*
X767728D02*
D03*
X688988D02*
D03*
X610248D02*
D03*
X487948D02*
D03*
X409208D02*
D03*
X330468D02*
D03*
X251728D02*
D03*
D138*
X808991Y25400D02*
D03*
X808991Y50800D02*
D03*
X808991Y76200D02*
D03*
Y101600D02*
D03*
X56901Y55700D02*
D03*
X961901Y55700D02*
D03*
Y905700D02*
D03*
X56901D02*
D03*
X558801Y17780D02*
D03*
X508001D02*
D03*
X457201D02*
D03*
X406401D02*
D03*
X355601D02*
D03*
X1833992Y25400D02*
D03*
X1833992Y50800D02*
D03*
X1833992Y76200D02*
D03*
Y101600D02*
D03*
X1081902Y55700D02*
D03*
X1986902Y55700D02*
D03*
Y905700D02*
D03*
X1081902D02*
D03*
X1583802Y17780D02*
D03*
X1533002D02*
D03*
X1482202D02*
D03*
X1431402D02*
D03*
X1380602D02*
D03*
X1236009Y2039600D02*
D03*
X1236009Y2014200D02*
D03*
X1236009Y1988800D02*
D03*
Y1963400D02*
D03*
X1988099Y2009300D02*
D03*
X1083099Y2009300D02*
D03*
Y1159300D02*
D03*
X1988099D02*
D03*
X1486199Y2047220D02*
D03*
X1536999D02*
D03*
X1587799D02*
D03*
X1638599D02*
D03*
X1689399D02*
D03*
X211008Y2039600D02*
D03*
X211008Y2014200D02*
D03*
X211008Y1988800D02*
D03*
Y1963400D02*
D03*
X963098Y2009300D02*
D03*
X58098Y2009300D02*
D03*
Y1159300D02*
D03*
X963098D02*
D03*
X461198Y2047220D02*
D03*
X511998D02*
D03*
X562798D02*
D03*
X613598D02*
D03*
X664398D02*
D03*
D139*
X284481Y33020D02*
D03*
X932181Y363220D02*
D03*
X227331Y306070D02*
D03*
X1309482Y33020D02*
D03*
X1957182Y363220D02*
D03*
X1252332Y306070D02*
D03*
X1760519Y2031980D02*
D03*
X1112819Y1701780D02*
D03*
X1817669Y1758930D02*
D03*
X735518Y2031980D02*
D03*
X87818Y1701780D02*
D03*
X792668Y1758930D02*
D03*
D140*
X557531Y58420D02*
D03*
X506731D02*
D03*
X405131D02*
D03*
X455931D02*
D03*
X977901Y257810D02*
D03*
X515621Y310480D02*
D03*
X1582532Y58420D02*
D03*
X1531732D02*
D03*
X1430132D02*
D03*
X1480932D02*
D03*
X2002902Y257810D02*
D03*
X1540622Y310480D02*
D03*
X1487469Y2006580D02*
D03*
X1538269D02*
D03*
X1639869D02*
D03*
X1589069D02*
D03*
X1067099Y1807190D02*
D03*
X1529379Y1754520D02*
D03*
X462468Y2006580D02*
D03*
X513268D02*
D03*
X614868D02*
D03*
X564068D02*
D03*
X42098Y1807190D02*
D03*
X504378Y1754520D02*
D03*
D141*
X354331Y58420D02*
D03*
X1379332D02*
D03*
X1690669Y2006580D02*
D03*
X665668D02*
D03*
D142*
X839471Y101600D02*
D03*
X1864472D02*
D03*
X1205529Y1963400D02*
D03*
X180528D02*
D03*
D143*
X804696Y157810D02*
D03*
X1829697D02*
D03*
X1240304Y1907190D02*
D03*
X215303D02*
D03*
D144*
X679812Y39009D02*
D03*
X1704813D02*
D03*
X1365188Y2025991D02*
D03*
X340187D02*
D03*
D145*
X172721Y115570D02*
D03*
X515621Y385480D02*
D03*
X1197722Y115570D02*
D03*
X1540622Y385480D02*
D03*
X1872279Y1949430D02*
D03*
X1529379Y1679520D02*
D03*
X847278Y1949430D02*
D03*
X504378Y1679520D02*
D03*
D146*
X172721Y165570D02*
D03*
X1197722D02*
D03*
X1872279Y1899430D02*
D03*
X847278D02*
D03*
D147*
X810261Y336550D02*
D03*
X828041D02*
D03*
X1835262D02*
D03*
X1853042D02*
D03*
X1234739Y1728450D02*
D03*
X1216959D02*
D03*
X209738D02*
D03*
X191958D02*
D03*
D148*
X558547Y199390D02*
D03*
Y186690D02*
D03*
Y173990D02*
D03*
Y161290D02*
D03*
Y148590D02*
D03*
Y135890D02*
D03*
Y123190D02*
D03*
X506731D02*
D03*
Y135890D02*
D03*
Y148590D02*
D03*
Y161290D02*
D03*
Y173990D02*
D03*
Y186690D02*
D03*
Y199390D02*
D03*
X1583548D02*
D03*
Y186690D02*
D03*
Y173990D02*
D03*
Y161290D02*
D03*
Y148590D02*
D03*
Y135890D02*
D03*
Y123190D02*
D03*
X1531732D02*
D03*
Y135890D02*
D03*
Y148590D02*
D03*
Y161290D02*
D03*
Y173990D02*
D03*
Y186690D02*
D03*
Y199390D02*
D03*
X1486453Y1865610D02*
D03*
Y1878310D02*
D03*
Y1891010D02*
D03*
Y1903710D02*
D03*
Y1916410D02*
D03*
Y1929110D02*
D03*
Y1941810D02*
D03*
X1538269D02*
D03*
Y1929110D02*
D03*
Y1916410D02*
D03*
Y1903710D02*
D03*
Y1891010D02*
D03*
Y1878310D02*
D03*
Y1865610D02*
D03*
X461452D02*
D03*
Y1878310D02*
D03*
Y1891010D02*
D03*
Y1903710D02*
D03*
Y1916410D02*
D03*
Y1929110D02*
D03*
Y1941810D02*
D03*
X513268D02*
D03*
Y1929110D02*
D03*
Y1916410D02*
D03*
Y1903710D02*
D03*
Y1891010D02*
D03*
Y1878310D02*
D03*
Y1865610D02*
D03*
D149*
X839471Y218440D02*
D03*
X1864472D02*
D03*
X1205529Y1846560D02*
D03*
X180528D02*
D03*
D150*
X648971Y173736D02*
D03*
Y165608D02*
D03*
Y157480D02*
D03*
X1673972Y173736D02*
D03*
Y165608D02*
D03*
Y157480D02*
D03*
X1396029Y1891264D02*
D03*
Y1899392D02*
D03*
Y1907520D02*
D03*
X371028Y1891264D02*
D03*
Y1899392D02*
D03*
Y1907520D02*
D03*
M02*
